Mada-Medium.ufo
<glyph name="uni0621" format="2">
  <advance width="498"/>
  <unicode hex="0621"/>
  <outline>
    <contour>
      <point x="393.87890625" y="272.00390625" type="line"/>
      <point x="393.87890625" y="167.00390625" type="line"/>
      <point x="298.41796875" y="167.00390625" type="line"/>
      <point x="329.845703125" y="100.3671875" type="line" smooth="yes"/>
      <point x="337.208984375" y="82.5048828125"/>
      <point x="353.451171875" y="54.8818359375"/>
      <point x="333.201171875" y="27.1318359375" type="curve" smooth="yes"/>
      <point x="314.923828125" y="2.0859375"/>
      <point x="283.9453125" y="0.4677734375"/>
      <point x="270.3251953125" y="0.4677734375" type="curve" smooth="yes"/>
      <point x="105.0" y="0.4677734375" type="line"/>
      <point x="105.0" y="105.4677734375" type="line"/>
      <point x="211.349609375" y="105.4677734375" type="line"/>
      <point x="180.341796875" y="171.216796875" type="line"/>
      <point x="180.341796875" y="171.216796875"/>
      <point x="156.841796875" y="210.880859375"/>
      <point x="176.439453125" y="241.6318359375" type="curve" smooth="yes"/>
      <point x="186.802734375" y="257.8916015625"/>
      <point x="209.103515625" y="272.00390625"/>
      <point x="244.05859375" y="272.00390625" type="curve" smooth="yes"/>
    </contour>
    <component base="arTah.above" xOffset="290.0" yOffset="373.0" identifier="mark_arTah.above"/>
    <component base="ar3Dot.above" xOffset="290.0" yOffset="373.0" identifier="mark_ar3Dot.above"/>
    <component base="ar1Dot.above" xOffset="290.0" yOffset="373.0" identifier="mark_ar1Dot.above"/>
    <component base="uni0652" xOffset="290.0" yOffset="409.0" identifier="mark_uni0652"/>
    <component base="uni064F" xOffset="290.0" yOffset="407.0" identifier="mark_uni064F"/>
    <component base="uni064C" xOffset="290.0" yOffset="406.0" identifier="mark_uni064C"/>
    <component base="ar3IDot.below" xOffset="200.0" yOffset="-90.0" identifier="mark_ar3IDot.below"/>
    <component base="ar2Dot.below" xOffset="200.0" yOffset="-90.0" identifier="mark_ar2Dot.below"/>
    <component base="uni0656" xOffset="200.0" yOffset="-90.0" identifier="mark_uni0656"/>
    <component base="uni064D" xOffset="200.0" yOffset="-120.0" identifier="mark_uni064D"/>
    <component base="uni0650" xOffset="200.0" yOffset="-111.0" identifier="mark_uni0650"/>
    <component base="ar1Dot.below" xOffset="200.0" yOffset="-90.0" identifier="mark_ar1Dot.below"/>
    <component base="ar3Dot.below" xOffset="200.0" yOffset="-90.0" identifier="mark_ar3Dot.below"/>
    <component base="uni064B" xOffset="290.0" yOffset="411.0" identifier="mark_uni064B"/>
    <component base="uni064E" xOffset="290.0" yOffset="394.0" identifier="mark_uni064E"/>
    <component base="uni0651" xOffset="290.0" yOffset="411.0" identifier="mark_uni0651"/>
    <component base="uni0670" xOffset="290.0" yOffset="373.0" identifier="mark_uni0670"/>
    <component base="ar2Dot.above" xOffset="290.0" yOffset="373.0" identifier="mark_ar2Dot.above"/>
    <component base="ar3IDot.above" xOffset="290.0" yOffset="373.0" identifier="mark_ar3IDot.above"/>
  </outline>
</glyph>
<glyph name="uni0640" format="2">
  <advance width="260"/>
  <unicode hex="0640"/>
  <outline>
    <contour>
      <point x="265.0" y="0.0" type="line"/>
      <point x="-5.0" y="0.0" type="line"/>
      <point x="-5.0" y="105.0" type="line"/>
      <point x="265.0" y="105.0" type="line"/>
    </contour>
  </outline>
</glyph>
<glyph name="uni064C" format="2">
  <unicode hex="064C"/>
  <anchor x="0" y="0" name="_markAbove"/>
  <outline>
    <contour>
      <point x="3.0" y="41.0" type="line"/>
      <point x="-9.0" y="74.0" type="line" smooth="yes"/>
      <point x="-21.0" y="109.0"/>
      <point x="-3.0" y="148.0"/>
      <point x="31.0" y="158.0" type="curve" smooth="yes"/>
      <point x="85.0" y="173.0"/>
      <point x="131.0" y="140.0"/>
      <point x="145.0" y="102.0" type="curve" smooth="yes"/>
      <point x="155.0" y="73.0"/>
      <point x="145.0" y="38.0"/>
      <point x="109.0" y="24.0" type="curve" smooth="yes"/>
      <point x="-29.0" y="-27.0" type="line" smooth="yes"/>
      <point x="-67.0" y="-41.0"/>
      <point x="-116.0" y="-25.0"/>
      <point x="-132.0" y="20.0" type="curve" smooth="yes"/>
      <point x="-147.0" y="59.0" type="line"/>
      <point x="-151.0" y="73.0"/>
      <point x="-145.0" y="89.0"/>
      <point x="-131.0" y="93.0" type="curve" smooth="yes"/>
      <point x="-117.0" y="97.0"/>
      <point x="-102.0" y="91.0"/>
      <point x="-98.0" y="77.0" type="curve"/>
      <point x="-83.0" y="38.0" type="line"/>
      <point x="-79.0" y="24.0"/>
      <point x="-62.0" y="17.0"/>
      <point x="-47.0" y="23.0" type="curve" smooth="yes"/>
    </contour>
    <contour>
      <point x="52.0" y="59.0" type="line"/>
      <point x="91.0" y="74.0" type="line" smooth="yes"/>
      <point x="99.0" y="77.0"/>
      <point x="99.0" y="76.0"/>
      <point x="96.0" y="84.0" type="curve" smooth="yes"/>
      <point x="92.0" y="98.0"/>
      <point x="70.0" y="113.0"/>
      <point x="46.0" y="107.0" type="curve" smooth="yes"/>
      <point x="40.053752511141965" y="105.40198910185245"/>
      <point x="37.0" y="98.0"/>
      <point x="40.0" y="90.0" type="curve" smooth="yes"/>
    </contour>
  </outline>
</glyph>
<glyph name="uni064F" format="2">
  <unicode hex="064F"/>
  <outline>
    <contour>
      <point x="-26.0" y="46.0" type="line"/>
      <point x="-36.0" y="79.0" type="line" smooth="yes"/>
      <point x="-48.0" y="113.0"/>
      <point x="-30.0" y="153.0"/>
      <point x="4.0" y="163.0" type="curve" smooth="yes"/>
      <point x="58.0" y="178.0"/>
      <point x="103.0" y="145.0"/>
      <point x="117.0" y="107.0" type="curve" smooth="yes"/>
      <point x="127.0" y="79.0"/>
      <point x="117.0" y="43.0"/>
      <point x="81.0" y="29.0" type="curve" smooth="yes"/>
      <point x="-86.0" y="-31.0" type="line"/>
      <point x="-100.0" y="-35.0"/>
      <point x="-115.0" y="-30.0"/>
      <point x="-119.0" y="-16.0" type="curve" smooth="yes"/>
      <point x="-123.0" y="-2.0"/>
      <point x="-118.0" y="13.0"/>
      <point x="-104.0" y="17.0" type="curve"/>
    </contour>
    <contour>
      <point x="24.0" y="64.0" type="line"/>
      <point x="63.0" y="79.0" type="line" smooth="yes"/>
      <point x="71.0" y="82.0"/>
      <point x="72.0" y="81.0"/>
      <point x="69.0" y="89.0" type="curve"/>
      <point x="65.0" y="103.0"/>
      <point x="42.0" y="118.0"/>
      <point x="18.0" y="112.0" type="curve"/>
      <point x="15.0" y="110.0"/>
      <point x="10.0" y="103.0"/>
      <point x="13.0" y="95.0" type="curve" smooth="yes"/>
    </contour>
  </outline>
</glyph>
<glyph name="uni0651" format="2">
  <unicode hex="0651"/>
  <outline>
    <contour>
      <point x="-124.0" y="110.0" type="line" smooth="yes"/>
      <point x="-124.0" y="125.0"/>
      <point x="-114.0" y="137.0"/>
      <point x="-99.0" y="137.0" type="curve" smooth="yes"/>
      <point x="-84.0" y="137.0"/>
      <point x="-74.0" y="125.0"/>
      <point x="-74.0" y="110.0" type="curve" smooth="yes"/>
      <point x="-74.0" y="17.0" type="line"/>
      <point x="-65.0" y="17.0"/>
      <point x="-51.0" y="10.0"/>
      <point x="-48.0" y="-2.0" type="curve" smooth="yes"/>
      <point x="-44.0" y="-16.0"/>
      <point x="-52.0" y="-31.0"/>
      <point x="-66.0" y="-35.0" type="curve" smooth="yes"/>
      <point x="-82.0" y="-39.0"/>
      <point x="-102.0" y="-37.0"/>
      <point x="-114.0" y="-23.0" type="curve" smooth="yes"/>
      <point x="-124.0" y="-11.0"/>
      <point x="-124.0" y="2.0"/>
      <point x="-124.0" y="11.0" type="curve" smooth="yes"/>
    </contour>
    <contour>
      <point x="-28.0" y="130.0" type="line" smooth="yes"/>
      <point x="-28.0" y="145.0"/>
      <point x="-17.0" y="155.0"/>
      <point x="-2.0" y="155.0" type="curve" smooth="yes"/>
      <point x="13.0" y="155.0"/>
      <point x="26.0" y="145.0"/>
      <point x="26.0" y="130.0" type="curve" smooth="yes"/>
      <point x="26.0" y="31.0" type="line" smooth="yes"/>
      <point x="26.0" y="5.0"/>
      <point x="2.0" y="-13.0"/>
      <point x="-18.0" y="-19.0" type="curve" smooth="yes"/>
      <point x="-64.0" y="-35.0" type="line"/>
      <point x="-78.0" y="-39.0"/>
      <point x="-94.0" y="-33.0"/>
      <point x="-98.0" y="-19.0" type="curve" smooth="yes"/>
      <point x="-102.0" y="-5.0"/>
      <point x="-95.0" y="12.0"/>
      <point x="-81.0" y="16.0" type="curve"/>
      <point x="-28.0" y="35.0" type="line"/>
    </contour>
    <contour>
      <point x="74.0" y="166.0" type="line" smooth="yes"/>
      <point x="74.0" y="181.0"/>
      <point x="84.0" y="191.0"/>
      <point x="99.0" y="191.0" type="curve" smooth="yes"/>
      <point x="114.0" y="191.0"/>
      <point x="124.0" y="181.0"/>
      <point x="124.0" y="166.0" type="curve" smooth="yes"/>
      <point x="124.0" y="67.0" type="line" smooth="yes"/>
      <point x="124.0" y="40.0"/>
      <point x="104.0" y="25.0"/>
      <point x="88.0" y="19.0" type="curve" smooth="yes"/>
      <point x="50.0" y="5.0" type="line"/>
      <point x="36.0" y="1.0"/>
      <point x="19.0" y="8.0"/>
      <point x="15.0" y="22.0" type="curve" smooth="yes"/>
      <point x="11.0" y="36.0"/>
      <point x="18.0" y="52.0"/>
      <point x="32.0" y="56.0" type="curve"/>
      <point x="74.0" y="71.0" type="line"/>
    </contour>
  </outline>
</glyph>
<glyph name="uni0652" format="2">
  <unicode hex="0652"/>
  <outline>
    <contour>
      <point x="-108.0" y="73.0" type="curve" smooth="yes"/>
      <point x="-108.0" y="133.0"/>
      <point x="-60.0" y="181.0"/>
      <point x="0.0" y="181.0" type="curve" smooth="yes"/>
      <point x="60.0" y="181.0"/>
      <point x="108.0" y="133.0"/>
      <point x="108.0" y="73.0" type="curve" smooth="yes"/>
      <point x="108.0" y="13.0"/>
      <point x="60.0" y="-36.0"/>
      <point x="0.0" y="-36.0" type="curve" smooth="yes"/>
      <point x="-60.0" y="-36.0"/>
      <point x="-108.0" y="13.0"/>
    </contour>
    <contour>
      <point x="-57.0" y="73.0" type="curve" smooth="yes"/>
      <point x="-57.0" y="41.0"/>
      <point x="-32.0" y="16.0"/>
      <point x="0.0" y="16.0" type="curve" smooth="yes"/>
      <point x="32.0" y="16.0"/>
      <point x="57.0" y="41.0"/>
      <point x="57.0" y="73.0" type="curve" smooth="yes"/>
      <point x="57.0" y="105.0"/>
      <point x="32.0" y="129.0"/>
      <point x="0.0" y="129.0" type="curve" smooth="yes"/>
      <point x="-32.0" y="129.0"/>
      <point x="-57.0" y="105.0"/>
    </contour>
  </outline>
</glyph>
<glyph name="uni0653" format="2">
  <unicode hex="0653"/>
  <anchor x="0" y="0" name="_uni0653"/>
  <outline>
    <contour>
      <point x="-104.0" y="0.0" type="line"/>
      <point x="-174.0" y="0.0" type="line"/>
      <point x="-174.0" y="53.0" type="line" smooth="yes"/>
      <point x="-174.0" y="96.0"/>
      <point x="-141.0" y="125.0"/>
      <point x="-100.0" y="125.0" type="curve" smooth="yes"/>
      <point x="139.0" y="125.0" type="line"/>
      <point x="139.0" y="55.0" type="line"/>
      <point x="-124.0" y="55.0" type="line"/>
      <point x="-117.0" y="62.0"/>
      <point x="-111.0" y="68.0"/>
      <point x="-104.0" y="75.0" type="curve"/>
    </contour>
  </outline>
</glyph>
<glyph name="uni065A" format="2">
  <unicode hex="065A"/>
  <anchor x="0" y="0" name="_dotAbove"/>
  <anchor x="0" y="0" name="_markAbove"/>
  <anchor x="0" y="258.0" name="markAbove"/>
  <outline>
    <contour>
      <point x="-52" y="0" type="line"/>
      <point x="52" y="0" type="line"/>
      <point x="164" y="137" type="line"/>
      <point x="122" y="176" type="line"/>
      <point x="2" y="70" type="line"/>
      <point x="-2" y="70" type="line"/>
      <point x="-122" y="176" type="line"/>
      <point x="-164" y="137" type="line"/>
    </contour>
  </outline>
</glyph>
<glyph name="uni065B" format="2">
  <unicode hex="065B"/>
  <anchor x="0" y="0" name="_dotAbove"/>
  <anchor x="0" y="258.0" name="markAbove"/>
  <outline>
    <contour>
      <point x="-164" y="39" type="line"/>
      <point x="-122" y="0" type="line"/>
      <point x="-2" y="106" type="line"/>
      <point x="2" y="106" type="line"/>
      <point x="122" y="0" type="line"/>
      <point x="164" y="39" type="line"/>
      <point x="52" y="175" type="line"/>
      <point x="-52" y="175" type="line"/>
    </contour>
  </outline>
</glyph>
<glyph name="arWavyHamza.above" format="2">
  <unicode hex="065F"/>
  <anchor x="0" y="0" name="_hamzaAbove"/>
  <anchor x="0" y="258.0" name="markAbove"/>
  <outline>
    <contour>
      <point x="-52.0" y="0.0" type="line"/>
      <point x="-71.0" y="0.0" type="line" smooth="yes"/>
      <point x="-101.0" y="0.0"/>
      <point x="-128.4599609375" y="8.689453125"/>
      <point x="-152.0" y="44.0" type="curve" smooth="yes"/>
      <point x="-161.99990844726562" y="59.000064849853516"/>
      <point x="-164.0" y="58.0"/>
      <point x="-168.0" y="58.0" type="curve" smooth="yes"/>
      <point x="-173.0" y="58.0"/>
      <point x="-185.0" y="47.0"/>
      <point x="-183.0" y="0.0" type="curve"/>
      <point x="-253.0" y="0.0" type="line"/>
      <point x="-256.0" y="78.0"/>
      <point x="-225.0" y="128.0"/>
      <point x="-171.0" y="128.0" type="curve" smooth="yes"/>
      <point x="-136.09300231933594" y="128.0"/>
      <point x="-117.0" y="116.0"/>
      <point x="-100.11328125" y="93.9150390625" type="curve" smooth="yes"/>
      <point x="-87.6591796875" y="77.6201171875"/>
      <point x="-82.0" y="70.0"/>
      <point x="-71.0" y="70.0" type="curve" smooth="yes"/>
      <point x="-52.0" y="70.0" type="line"/>
    </contour>
    <contour>
      <point x="96.0" y="181.0" type="line"/>
      <point x="96.0" y="111.0" type="line"/>
      <point x="33.0" y="111.0" type="line"/>
      <point x="54.0" y="66.0" type="line" smooth="yes"/>
      <point x="59.0" y="54.0"/>
      <point x="70.0" y="36.0"/>
      <point x="56.0" y="18.0" type="curve" smooth="yes"/>
      <point x="44.0" y="1.0"/>
      <point x="23.0" y="0.0"/>
      <point x="14.0" y="-0.0" type="curve" smooth="yes"/>
      <point x="-62.0" y="0.0" type="line"/>
      <point x="-62.0" y="70.0" type="line"/>
      <point x="-25.0" y="70.0" type="line"/>
      <point x="-46.0" y="114.0" type="line"/>
      <point x="-46.0" y="114.0"/>
      <point x="-62.0" y="139.0"/>
      <point x="-49.0" y="160.0" type="curve" smooth="yes"/>
      <point x="-42.0" y="171.0"/>
      <point x="-27.0" y="181.0"/>
      <point x="-4.0" y="181.0" type="curve" smooth="yes"/>
    </contour>
  </outline>
</glyph>
<glyph name="uni0661" format="2">
  <advance width="305"/>
  <unicode hex="0661"/>
  <outline>
    <contour>
      <point x="100.0" y="659.0" type="line"/>
      <point x="205.0" y="659.0" type="line"/>
      <point x="205.0" y="0.0" type="line"/>
      <point x="100.0" y="0.0" type="line"/>
    </contour>
  </outline>
</glyph>
<glyph name="uni0662" format="2">
  <advance width="378"/>
  <unicode hex="0662"/>
  <outline>
    <contour>
      <point x="155.0" y="0.0" type="line"/>
      <point x="50.0" y="0.0" type="line"/>
      <point x="50.0" y="553.0" type="line" smooth="yes"/>
      <point x="50.0" y="613.0"/>
      <point x="99.0" y="657.0"/>
      <point x="156.0" y="657.0" type="curve" smooth="yes"/>
      <point x="328.0" y="657.0" type="line"/>
      <point x="328.0" y="552.0" type="line"/>
      <point x="136.0" y="552.0" type="line"/>
      <point x="142.65" y="559.35"/>
      <point x="148.35" y="565.65"/>
      <point x="155.0" y="573.0" type="curve"/>
    </contour>
  </outline>
</glyph>
<glyph name="uni0663" format="2">
  <advance width="572"/>
  <unicode hex="0663"/>
  <outline>
    <contour>
      <point x="233.5" y="660.0" type="line"/>
      <point x="338.5" y="660.0" type="line"/>
      <point x="338.5" y="477.0" type="line" smooth="yes"/>
      <point x="338.5" y="417.0"/>
      <point x="289.5" y="373.0"/>
      <point x="232.5" y="373.0" type="curve" smooth="yes"/>
      <point x="151.5" y="373.0" type="line"/>
      <point x="151.5" y="478.0" type="line"/>
      <point x="252.5" y="478.0" type="line" smooth="yes"/>
      <point x="253.5" y="478.0"/>
      <point x="233.5" y="457.0"/>
      <point x="233.5" y="457.0" type="curve"/>
    </contour>
    <contour>
      <point x="417.5" y="660.0" type="line"/>
      <point x="522.5" y="660.0" type="line"/>
      <point x="522.5" y="477.0" type="line" smooth="yes"/>
      <point x="522.5" y="417.0"/>
      <point x="473.5" y="373.0"/>
      <point x="416.5" y="373.0" type="curve" smooth="yes"/>
      <point x="334.5" y="373.0" type="line"/>
      <point x="334.5" y="478.0" type="line"/>
      <point x="436.5" y="478.0" type="line" smooth="yes"/>
      <point x="437.5" y="478.0"/>
      <point x="417.5" y="457.0"/>
      <point x="417.5" y="457.0" type="curve"/>
    </contour>
    <contour>
      <point x="50.0" y="660.0" type="line"/>
      <point x="155.0" y="660.0" type="line"/>
      <point x="155.0" y="0.0" type="line"/>
      <point x="50.0" y="0.0" type="line"/>
    </contour>
  </outline>
</glyph>
<glyph name="uni0665" format="2">
  <advance width="577"/>
  <unicode hex="0665"/>
  <outline>
    <contour>
      <point x="373.9541015625" y="611.8076171875" type="curve" smooth="yes"/>
      <point x="466.810546875" y="554.6083984375"/>
      <point x="526.244140625" y="395.193359375"/>
      <point x="527.328125" y="256.3310546875" type="curve" smooth="yes"/>
      <point x="528.3232421875" y="128.7216796875"/>
      <point x="475.861328125" y="-12.3896484375"/>
      <point x="290.9560546875" y="-12.4990234375" type="curve" smooth="yes"/>
      <point x="109.54296875" y="-12.60546875"/>
      <point x="46.517578125" y="108.2900390625"/>
      <point x="50.1474609375" y="268.427734375" type="curve" smooth="yes"/>
      <point x="53.3115234375" y="408.0224609375"/>
      <point x="120.1572265625" y="555.6748046875"/>
      <point x="199.7724609375" y="607.880859375" type="curve" smooth="yes"/>
      <point x="253.2197265625" y="643.0439453125"/>
      <point x="319.2001953125" y="644.9482421875"/>
    </contour>
    <contour>
      <point x="319.1875" y="522.220703125" type="curve" smooth="yes"/>
      <point x="298.16796875" y="534.7265625"/>
      <point x="280.02734375" y="534.9951171875"/>
      <point x="257.44921875" y="520.140625" type="curve" smooth="yes"/>
      <point x="213.298828125" y="491.189453125"/>
      <point x="164.265625" y="368.22265625"/>
      <point x="159.4365234375" y="262.427734375" type="curve" smooth="yes"/>
      <point x="154.8740234375" y="162.4853515625"/>
      <point x="184.322265625" y="92.83203125"/>
      <point x="290.2314453125" y="92.4990234375" type="curve" smooth="yes"/>
      <point x="389.82421875" y="92.185546875"/>
      <point x="423.1162109375" y="154.8544921875"/>
      <point x="422.3310546875" y="255.51171875" type="curve" smooth="yes"/>
      <point x="421.4345703125" y="370.435546875"/>
      <point x="358.6259765625" y="497.6533203125"/>
    </contour>
  </outline>
</glyph>
<glyph name="uni0666" format="2">
  <advance width="471"/>
  <unicode hex="0666"/>
  <outline>
    <contour>
      <point x="316.0" y="0.0" type="line"/>
      <point x="421.0" y="0.0" type="line"/>
      <point x="421.0" y="552.0" type="line" smooth="yes"/>
      <point x="421.0" y="612.0"/>
      <point x="372.0" y="656.0"/>
      <point x="315.0" y="656.0" type="curve" smooth="yes"/>
      <point x="50.0" y="656.0" type="line"/>
      <point x="50.0" y="551.0" type="line"/>
      <point x="335.0" y="551.0" type="line"/>
      <point x="328.35" y="558.35"/>
      <point x="322.65" y="564.65"/>
      <point x="316.0" y="572.0" type="curve"/>
    </contour>
  </outline>
</glyph>
<glyph name="uni0667" format="2">
  <advance width="588"/>
  <unicode hex="0667"/>
  <outline>
    <contour>
      <point x="437.2099609375" y="651.2880859375" type="line"/>
      <point x="538.791015625" y="624.7119140625" type="line"/>
      <point x="388.025390625" y="47.7880859375" type="line" smooth="yes"/>
      <point x="379.86328125" y="16.5888671875"/>
      <point x="351.64453125" y="-8.5400390625"/>
      <point x="310.0546875" y="-8.9755859375" type="curve" smooth="yes"/>
      <point x="277.76953125" y="-9.314453125"/>
      <point x="245.6279296875" y="11.5458984375"/>
      <point x="234.583984375" y="46.044921875" type="curve" smooth="yes"/>
      <point x="50.0" y="621.9931640625" type="line"/>
      <point x="150.0009765625" y="654.0068359375" type="line"/>
      <point x="319.5" y="124.0" type="line"/>
      <point x="312.48564453125" y="124.035205078125"/>
      <point x="306.47333984375" y="124.065380859375"/>
      <point x="299.458984375" y="124.1005859375" type="curve"/>
    </contour>
  </outline>
</glyph>
<glyph name="uni0669" format="2">
  <advance width="484"/>
  <unicode hex="0669"/>
  <outline>
    <contour>
      <point x="359.9814453125" y="283.162109375" type="line"/>
      <point x="258.861328125" y="285.8232421875"/>
      <point x="152.7626953125" y="259.916015625"/>
      <point x="81.31640625" y="363.1162109375" type="curve" smooth="yes"/>
      <point x="80.45703125" y="364.3583984375" type="line"/>
      <point x="79.669921875" y="365.6474609375" type="line" smooth="yes"/>
      <point x="17.138671875" y="468.0927734375"/>
      <point x="61.18359375" y="584.177734375"/>
      <point x="139.953125" y="628.7724609375" type="curve"/>
      <point x="211.4140625" y="675.748046875"/>
      <point x="343.80078125" y="673.1181640625"/>
      <point x="406.673828125" y="576.40625" type="curve" smooth="yes"/>
      <point x="424.8935546875" y="548.37890625"/>
      <point x="434.9814453125" y="513.599609375"/>
      <point x="434.9814453125" y="475.0" type="curve" smooth="yes"/>
      <point x="434.9814453125" y="0.0" type="line"/>
      <point x="329.9814453125" y="0.0" type="line"/>
      <point x="329.9814453125" y="475.0" type="line" smooth="yes"/>
      <point x="329.9814453125" y="496.861328125"/>
      <point x="324.662109375" y="510.5234375"/>
      <point x="317.6748046875" y="520.6162109375" type="curve" smooth="yes"/>
      <point x="293.6201171875" y="555.3623046875"/>
      <point x="223.880859375" y="559.353515625"/>
      <point x="197.5419921875" y="540.9580078125" type="curve" smooth="yes"/>
      <point x="195.025390625" y="539.2001953125" type="line"/>
      <point x="166.1005859375" y="523.666015625"/>
      <point x="138.017578125" y="473.9130859375"/>
      <point x="168.515625" y="421.642578125" type="curve"/>
      <point x="200.27734375" y="376.873046875"/>
      <point x="234.822265625" y="391.6767578125"/>
      <point x="359.9814453125" y="388.2705078125" type="curve"/>
    </contour>
  </outline>
</glyph>
<glyph name="uni066A" format="2">
  <advance width="522"/>
  <unicode hex="066A"/>
  <outline>
    <contour>
      <point x="39.0" y="-12.0" type="line"/>
      <point x="397.0" y="667.0" type="line"/>
      <point x="483.0" y="667.0" type="line"/>
      <point x="124.0" y="-12.0" type="line"/>
    </contour>
    <component base="uni0660" xOffset="-68.0" yOffset="263.0"/>
    <component base="uni0660" xOffset="240.0" yOffset="-266.0"/>
  </outline>
</glyph>
<glyph name="uni066B" format="2">
  <advance width="143"/>
  <unicode hex="066B"/>
  <outline>
    <contour>
      <point x="0.0" y="105.0" type="line"/>
      <point x="79.0" y="105.0" type="line"/>
      <point x="79.0" y="-2.0" type="line" smooth="yes"/>
      <point x="79.0" y="-82.0"/>
      <point x="19.0" y="-152.0"/>
      <point x="-65.0" y="-152.0" type="curve" smooth="yes"/>
      <point x="-141.0" y="-152.0" type="line"/>
      <point x="-141.0" y="-74.0" type="line"/>
      <point x="-65.0" y="-74.0" type="line" smooth="yes"/>
      <point x="-27.0" y="-74.0"/>
      <point x="0.0" y="-45.0"/>
      <point x="0.0" y="-2.0" type="curve" smooth="yes"/>
    </contour>
  </outline>
</glyph>
<glyph name="uni0670" format="2">
  <unicode hex="0670"/>
  <anchor x="0" y="0" name="_markAbove"/>
  <anchor x="0" y="0" name="_markAboveDot"/>
  <outline>
    <contour>
      <point x="-26.0" y="0.0" type="curve"/>
      <point x="-26.0" y="178.0" type="line"/>
      <point x="25.0" y="178.0" type="line"/>
      <point x="25.0" y="43.0" type="line" smooth="yes"/>
      <point x="25.0" y="34.0"/>
      <point x="10.0" y="0.0"/>
    </contour>
  </outline>
</glyph>
<glyph name="uni06D4" format="2">
  <advance width="387"/>
  <unicode hex="06D4"/>
  <outline>
    <contour>
      <point x="151.0" y="105.0" type="line"/>
      <point x="323.0" y="105.0" type="line"/>
      <point x="236.0" y="0.0" type="line"/>
      <point x="64.0" y="0.0" type="line"/>
    </contour>
  </outline>
</glyph>
<glyph name="uni06F4" format="2">
  <advance width="572"/>
  <unicode hex="06F4"/>
  <outline>
    <contour>
      <point x="350.0" y="373.0" type="line"/>
      <point x="245.0" y="373.0" type="line"/>
      <point x="245.0" y="556.0" type="line" smooth="yes"/>
      <point x="241.7261957120061" y="615.9106184702791"/>
      <point x="294.0" y="660.0"/>
      <point x="351.0" y="660.0" type="curve" smooth="yes"/>
      <point x="432.0" y="660.0" type="line"/>
      <point x="432.0" y="555.0" type="line"/>
      <point x="331.0" y="555.0" type="line" smooth="yes"/>
      <point x="329.9999999999818" y="555.0"/>
      <point x="350.0" y="576.0"/>
      <point x="350.0" y="576.0" type="curve"/>
    </contour>
    <contour>
      <point x="50.0" y="660.0" type="line"/>
      <point x="155.0" y="660.0" type="line"/>
      <point x="155.0" y="0.0" type="line"/>
      <point x="50.0" y="0.0" type="line"/>
    </contour>
    <contour>
      <point x="452.5" y="373.0" type="line"/>
      <point x="151.5" y="373.0" type="line"/>
      <point x="151.5" y="478.0" type="line"/>
      <point x="452.5" y="478.0" type="line"/>
    </contour>
  </outline>
</glyph>
<glyph name="uni06F5" format="2">
  <advance width="577"/>
  <unicode hex="06F5"/>
  <outline>
    <contour>
      <point x="373.9541015625" y="611.8076171875" type="curve" smooth="yes"/>
      <point x="466.810546875" y="554.6083984375"/>
      <point x="526.244140625" y="395.193359375"/>
      <point x="527.328125" y="256.3310546875" type="curve" smooth="yes"/>
      <point x="528.1131291640625" y="155.66563356249998"/>
      <point x="495.6321548169837" y="0.5482905055438607"/>
      <point x="391.11079855322237" y="0.3498737070341633" type="curve" smooth="yes"/>
      <point x="363.1347709297326" y="0.29676576781011327"/>
      <point x="329.9976937421875" y="11.342214437499994"/>
      <point x="290.9560546875" y="37.5009765625" type="curve"/>
      <point x="249.0621493388672" y="10.226537040039062"/>
      <point x="213.5110701388982" y="0.8257740557104434"/>
      <point x="183.5777730645237" y="0.6590976672104674" type="curve" smooth="yes"/>
      <point x="83.9886033115938" y="0.1045592511153064"/>
      <point x="47.35583059277346" y="145.27079717871095"/>
      <point x="50.1474609375" y="268.427734375" type="curve" smooth="yes"/>
      <point x="53.3115234375" y="408.0224609375"/>
      <point x="120.1572265625" y="555.6748046875"/>
      <point x="199.7724609375" y="607.880859375" type="curve" smooth="yes"/>
      <point x="253.2197265625" y="643.0439453125"/>
      <point x="319.2001953125" y="644.9482421875"/>
    </contour>
    <contour>
      <point x="319.1875" y="522.220703125" type="curve" smooth="yes"/>
      <point x="298.16796875" y="534.7265625"/>
      <point x="280.02734375" y="534.9951171875"/>
      <point x="257.44921875" y="520.140625" type="curve" smooth="yes"/>
      <point x="213.298828125" y="491.189453125"/>
      <point x="164.265625" y="368.22265625"/>
      <point x="159.4365234375" y="262.427734375" type="curve" smooth="yes"/>
      <point x="156.272680625" y="193.12318872558592"/>
      <point x="169.4634462777409" y="119.14898371480409"/>
      <point x="213.16401211929357" y="110.20744693350997" type="curve" smooth="yes"/>
      <point x="232.4829587719584" y="106.2546131716549"/>
      <point x="257.76445673339845" y="115.01115864746096"/>
      <point x="290.2314453125" y="142.4990234375" type="curve"/>
      <point x="320.9861917138672" y="117.69782030761719"/>
      <point x="345.41846060676437" y="109.3923122667777"/>
      <point x="364.4771673387008" y="112.72378356436525" type="curve" smooth="yes"/>
      <point x="407.1360711763356" y="120.18058090746533"/>
      <point x="422.8737507617188" y="185.9379470361328"/>
      <point x="422.3310546875" y="255.51171875" type="curve" smooth="yes"/>
      <point x="421.4345703125" y="370.435546875"/>
      <point x="358.6259765625" y="497.6533203125"/>
    </contour>
  </outline>
</glyph>
<glyph name="uni06F6" format="2">
  <advance width="497.7905100276153"/>
  <unicode hex="06F6"/>
  <outline>
    <contour>
      <point x="441.3084355080697" y="397.3844781724837" type="line"/>
      <point x="101.76697114842591" y="1.7003539335491666" type="line"/>
      <point x="73.90576434240246" y="16.142582407722415"/>
      <point x="53.64354661225251" y="45.72956074971768"/>
      <point x="58.31341290165609" y="78.70349281222684" type="curve" smooth="yes"/>
      <point x="64.78941570159893" y="124.43180249967517"/>
      <point x="96.18797932559241" y="151.81870452721154"/>
      <point x="111.93769094630363" y="169.85900019417693" type="curve" smooth="yes"/>
      <point x="345.05510052072714" y="446.88020636729794" type="line"/>
    </contour>
    <contour>
      <point x="392.43085682604647" y="626.2488060693677" type="curve"/>
      <point x="364.672206414098" y="524.1045094723122" type="line"/>
      <point x="347.93838258400086" y="529.1024230393191"/>
      <point x="333.4333897439966" y="532.3589829898535"/>
      <point x="321.15722789408534" y="533.8741893239157" type="curve" smooth="yes"/>
      <point x="262.6321877560476" y="542.8083751760835"/>
      <point x="235.18891213590587" y="528.3561565492796"/>
      <point x="229.84298194308366" y="522.6622097306422" type="curve"/>
      <point x="228.97230513484752" y="521.5477942355956"/>
      <point x="210.40917066627725" y="484.005684029831"/>
      <point x="309.45268897760775" y="399.4457556919171" type="curve"/>
      <point x="240.80868187475525" y="318.47662398814043" type="line"/>
      <point x="139.65820191673697" y="403.78535979088537"/>
      <point x="82.093066096332" y="511.57336996816963"/>
      <point x="149.98826573435346" y="590.4355400252584" type="curve" smooth="yes"/>
      <point x="192.26822990331044" y="639.9572991809237"/>
      <point x="262.61713732643915" y="649.6025687143306"/>
      <point x="336.5178471127173" y="638.5262384066748" type="curve" smooth="yes"/>
      <point x="354.99302455928677" y="635.7571558297609"/>
      <point x="373.71194069266664" y="631.0029809495641"/>
    </contour>
  </outline>
</glyph>
<glyph name="ar1Dot.above" format="2">
  <outline>
    <contour>
      <point x="-52.0" y="0.0" type="curve" smooth="yes"/>
      <point x="-52.0" y="29.0"/>
      <point x="-29.0" y="52.0"/>
      <point x="0.0" y="52.0" type="curve" smooth="yes"/>
      <point x="29.0" y="52.0"/>
      <point x="52.0" y="29.0"/>
      <point x="52.0" y="0.0" type="curve" smooth="yes"/>
      <point x="52.0" y="-29.0"/>
      <point x="29.0" y="-52.0"/>
      <point x="0.0" y="-52.0" type="curve" smooth="yes"/>
      <point x="-29.0" y="-52.0"/>
      <point x="-52.0" y="-29.0"/>
    </contour>
    <component base="uni0670" yOffset="110.0" identifier="mark_uni0670"/>
    <component base="uni0651" yOffset="148.0" identifier="mark_uni0651"/>
    <component base="uni064E" yOffset="131.0" identifier="mark_uni064E"/>
    <component base="uni064B" yOffset="148.0" identifier="mark_uni064B"/>
    <component base="uni064C" yOffset="143.0" identifier="mark_uni064C"/>
    <component base="uni064F" yOffset="144.0" identifier="mark_uni064F"/>
    <component base="uni0652" yOffset="146.0" identifier="mark_uni0652"/>
  </outline>
</glyph>
<glyph name="arAin.init" format="2">
  <advance width="518"/>
  <anchor x="254.0" y="-149.0" name="dotBelow"/>
  <anchor x="254.0" y="-179.0" name="markBelow"/>
  <anchor x="253.0" y="493.0" name="dotAbove"/>
  <anchor x="253.0" y="531.0" name="markAbove"/>
  <outline>
    <contour>
      <point x="0.0" y="0.0" type="line"/>
      <point x="0.0" y="105.0" type="line"/>
      <point x="468.0" y="105.0" type="line"/>
      <point x="468.0" y="0.0" type="line"/>
    </contour>
    <contour>
      <point x="433.0" y="357.0" type="curve"/>
      <point x="403.0" y="257.0" type="line"/>
      <point x="274.0" y="296.0"/>
      <point x="208.0" y="276.0"/>
      <point x="194.0" y="262.0" type="curve" smooth="yes"/>
      <point x="187.0" y="255.0"/>
      <point x="172.0" y="205.0"/>
      <point x="278.0" y="102.0" type="curve"/>
      <point x="204.0" y="26.0" type="line"/>
      <point x="99.0" y="128.0"/>
      <point x="38.0" y="251.0"/>
      <point x="119.0" y="335.0" type="curve" smooth="yes"/>
      <point x="183.0" y="401.0"/>
      <point x="298.0" y="398.0"/>
    </contour>
  </outline>
</glyph>
<glyph name="arAin.isol" format="2">
  <advance width="482"/>
  <anchor x="281.0" y="-9.0" name="dotBelow"/>
  <anchor x="281.0" y="-239.0" name="markBelow"/>
  <anchor x="258.0" y="536.0" name="dotAbove"/>
  <anchor x="258.0" y="574.0" name="markAbove"/>
  <outline>
    <contour>
      <point x="432.0" y="-95.0" type="line"/>
      <point x="432.0" y="-200.0" type="line"/>
      <point x="144.0" y="-200.0" type="line" smooth="yes"/>
      <point x="89.0" y="-200.0"/>
      <point x="50.0" y="-153.0"/>
      <point x="50.0" y="-100.0" type="curve" smooth="yes"/>
      <point x="50.0" y="78.0" type="line" smooth="yes"/>
      <point x="50.0" y="131.0"/>
      <point x="89.0" y="178.0"/>
      <point x="146.0" y="178.0" type="curve" smooth="yes"/>
      <point x="432.0" y="178.0" type="line"/>
      <point x="432.0" y="73.0" type="line"/>
      <point x="135.0" y="73.0" type="line"/>
      <point x="142.0" y="80.0"/>
      <point x="148.0" y="86.0"/>
      <point x="155.0" y="93.0" type="curve"/>
      <point x="155.0" y="-115.0" type="line"/>
      <point x="148.0" y="-108.0"/>
      <point x="142.0" y="-102.0"/>
      <point x="135.0" y="-95.0" type="curve"/>
    </contour>
    <contour>
      <point x="413.0" y="377.0" type="curve"/>
      <point x="373.0" y="279.0" type="line"/>
      <point x="357.0" y="286.0"/>
      <point x="343.0" y="291.0"/>
      <point x="331.0" y="294.0" type="curve" smooth="yes"/>
      <point x="274.0" y="310.0"/>
      <point x="245.0" y="299.0"/>
      <point x="239.0" y="294.0" type="curve"/>
      <point x="238.0" y="293.0"/>
      <point x="215.0" y="258.0"/>
      <point x="303.0" y="162.0" type="curve"/>
      <point x="225.0" y="90.0" type="line"/>
      <point x="135.0" y="187.0"/>
      <point x="91.0" y="301.0"/>
      <point x="168.0" y="371.0" type="curve" smooth="yes"/>
      <point x="216.0" y="415.0"/>
      <point x="287.0" y="416.0"/>
      <point x="359.0" y="396.0" type="curve" smooth="yes"/>
      <point x="377.0" y="391.0"/>
      <point x="395.0" y="384.0"/>
    </contour>
  </outline>
</glyph>
<glyph name="arAlef.fina.1" format="2">
  <outline>
    <contour>
      <point x="73.0" y="632.0" type="line"/>
      <point x="173.0" y="662.0" type="line"/>
      <point x="294.0" y="246.0" type="line"/>
      <point x="194.0" y="216.0" type="line"/>
    </contour>
    <contour>
      <point x="180.0" y="263.0" type="curve"/>
      <point x="283.0" y="263.0" type="line"/>
      <point x="272.0" y="200.0"/>
      <point x="234.0" y="141.0"/>
      <point x="143.0" y="90.0" type="curve"/>
      <point x="60.0" y="90.0" type="line"/>
      <point x="128.0" y="123.0"/>
      <point x="182.0" y="161.0"/>
    </contour>
    <component base="arTah.above" xOffset="107.0" yOffset="738.0" identifier="mark_arTah.above"/>
    <component base="ar3Dot.above" xOffset="107.0" yOffset="738.0" identifier="mark_ar3Dot.above"/>
    <component base="ar1Dot.above" xOffset="107.0" yOffset="738.0" identifier="mark_ar1Dot.above"/>
    <component base="uni0652" xOffset="107.0" yOffset="774.0" identifier="mark_uni0652"/>
    <component base="uni064F" xOffset="107.0" yOffset="772.0" identifier="mark_uni064F"/>
    <component base="uni064C" xOffset="107.0" yOffset="771.0" identifier="mark_uni064C"/>
    <component base="uni0654" xOffset="107.0" yOffset="738.0" identifier="mark_uni0654"/>
    <component base="arSad.above" xOffset="107.0" yOffset="738.0" identifier="mark_arSad.above"/>
    <component base="ar3IDot.below" xOffset="87.0" yOffset="-99.0" identifier="mark_ar3IDot.below"/>
    <component base="ar2Dot.below" xOffset="87.0" yOffset="-99.0" identifier="mark_ar2Dot.below"/>
    <component base="uni0656" xOffset="87.0" yOffset="-99.0" identifier="mark_uni0656"/>
    <component base="uni064D" xOffset="87.0" yOffset="-129.0" identifier="mark_uni064D"/>
    <component base="uni0655" xOffset="87.0" yOffset="-99.0" identifier="mark_uni0655"/>
    <component base="uni0650" xOffset="87.0" yOffset="-120.0" identifier="mark_uni0650"/>
    <component base="ar1Dot.below" xOffset="87.0" yOffset="-99.0" identifier="mark_ar1Dot.below"/>
    <component base="ar3Dot.below" xOffset="87.0" yOffset="-99.0" identifier="mark_ar3Dot.below"/>
    <component base="arKaf.above" xOffset="107.0" yOffset="738.0" identifier="mark_arKaf.above"/>
    <component base="uni0653" xOffset="107.0" yOffset="738.0" identifier="mark_uni0653"/>
    <component base="uni064B" xOffset="107.0" yOffset="776.0" identifier="mark_uni064B"/>
    <component base="uni064E" xOffset="107.0" yOffset="759.0" identifier="mark_uni064E"/>
    <component base="uni0651" xOffset="107.0" yOffset="776.0" identifier="mark_uni0651"/>
    <component base="uni0670" xOffset="107.0" yOffset="738.0" identifier="mark_uni0670"/>
    <component base="ar2Dot.above" xOffset="107.0" yOffset="738.0" identifier="mark_ar2Dot.above"/>
    <component base="ar3IDot.above" xOffset="107.0" yOffset="738.0" identifier="mark_ar3IDot.above"/>
  </outline>
</glyph>
<glyph name="arAlef.isol" format="2">
  <advance width="205"/>
  <anchor x="101.0" y="664.0" name="dotAbove"/>
  <anchor x="101.0" y="664.0" name="uni0653"/>
  <anchor x="101.0" y="664.0" name="arKaf.above"/>
  <anchor x="101.0" y="700.0" name="markAbove"/>
  <anchor x="101.0" y="-29.0" name="dotBelow"/>
  <anchor x="101.0" y="-29.0" name="uni0655"/>
  <anchor x="101.0" y="-50.0" name="markBelow"/>
  <anchor x="101.0" y="664.0" name="arSad.above"/>
  <anchor x="101.0" y="664.0" name="uni0654"/>
  <outline>
    <contour>
      <point x="50.0" y="624.0" type="line"/>
      <point x="155.0" y="624.0" type="line"/>
      <point x="155.0" y="110.0" type="line" smooth="yes"/>
      <point x="155.0" y="47.0"/>
      <point x="116.0" y="0.0"/>
      <point x="50.0" y="0.0" type="curve"/>
    </contour>
  </outline>
</glyph>
<glyph name="arBeh.init" format="2">
  <advance width="445"/>
  <outline>
    <contour>
      <point x="290.0" y="376.0" type="line"/>
      <point x="395.0" y="376.0" type="line"/>
      <point x="395.0" y="104.0" type="line" smooth="yes"/>
      <point x="395.0" y="44.0"/>
      <point x="346.0" y="0.0"/>
      <point x="289.0" y="0.0" type="curve" smooth="yes"/>
      <point x="0.0" y="0.0" type="line"/>
      <point x="0.0" y="105.0" type="line"/>
      <point x="309.0" y="105.0" type="line" smooth="yes"/>
      <point x="310.0" y="105.0"/>
      <point x="290.0" y="84.0"/>
      <point x="290.0" y="84.0" type="curve"/>
    </contour>
  </outline>
</glyph>
<glyph name="arBeh.isol" format="2">
  <advance width="767"/>
  <outline>
    <contour>
      <point x="612.0" y="300.0" type="line"/>
      <point x="717.0" y="300.0" type="line"/>
      <point x="717.0" y="105.0" type="line" smooth="yes"/>
      <point x="717.0" y="47.0"/>
      <point x="670.0" y="0.0"/>
      <point x="613.0" y="0.0" type="curve" smooth="yes"/>
      <point x="221.0" y="0.0" type="line" smooth="yes"/>
      <point x="134.0" y="0.0"/>
      <point x="50.0" y="66.0"/>
      <point x="50.0" y="160.0" type="curve" smooth="yes"/>
      <point x="50.0" y="300.0" type="line"/>
      <point x="155.0" y="300.0" type="line"/>
      <point x="155.0" y="160.0" type="line" smooth="yes"/>
      <point x="155.0" y="134.0"/>
      <point x="182.0" y="105.0"/>
      <point x="221.0" y="105.0" type="curve" smooth="yes"/>
      <point x="632.0" y="105.0" type="line"/>
      <point x="625.0" y="98.35"/>
      <point x="619.0" y="92.65"/>
      <point x="612.0" y="86.0" type="curve"/>
    </contour>
    <component base="ar3IDot.below" xOffset="402.0" yOffset="-109.0" identifier="mark_ar3IDot.below"/>
    <component base="ar2Dot.below" xOffset="402.0" yOffset="-109.0" identifier="mark_ar2Dot.below"/>
    <component base="uni0656" xOffset="402.0" yOffset="-109.0" identifier="mark_uni0656"/>
    <component base="uni064D" xOffset="402.0" yOffset="-139.0" identifier="mark_uni064D"/>
    <component base="ar3IDot.above" xOffset="382.0" yOffset="394.0" identifier="mark_ar3IDot.above"/>
    <component base="ar2Dot.above" xOffset="382.0" yOffset="394.0" identifier="mark_ar2Dot.above"/>
    <component base="uni0670" xOffset="382.0" yOffset="394.0" identifier="mark_uni0670"/>
    <component base="uni0651" xOffset="382.0" yOffset="432.0" identifier="mark_uni0651"/>
    <component base="uni064E" xOffset="382.0" yOffset="415.0" identifier="mark_uni064E"/>
    <component base="uni064B" xOffset="382.0" yOffset="432.0" identifier="mark_uni064B"/>
    <component base="uni064C" xOffset="382.0" yOffset="427.0" identifier="mark_uni064C"/>
    <component base="uni064F" xOffset="382.0" yOffset="428.0" identifier="mark_uni064F"/>
    <component base="uni0652" xOffset="382.0" yOffset="430.0" identifier="mark_uni0652"/>
    <component base="ar1Dot.above" xOffset="382.0" yOffset="394.0" identifier="mark_ar1Dot.above"/>
    <component base="ar3Dot.above" xOffset="382.0" yOffset="394.0" identifier="mark_ar3Dot.above"/>
    <component base="arTah.above" xOffset="382.0" yOffset="394.0" identifier="mark_arTah.above"/>
    <component base="uni0650" xOffset="402.0" yOffset="-130.0" identifier="mark_uni0650"/>
    <component base="ar1Dot.below" xOffset="402.0" yOffset="-109.0" identifier="mark_ar1Dot.below"/>
    <component base="ar3Dot.below" xOffset="402.0" yOffset="-109.0" identifier="mark_ar3Dot.below"/>
  </outline>
</glyph>
<glyph name="arDal.isol" format="2">
  <advance width="499"/>
  <outline>
    <contour>
      <point x="157.0" y="283.0" type="curve"/>
      <point x="203.0" y="377.0" type="line"/>
      <point x="271.0" y="343.0"/>
      <point x="419.0" y="266.0"/>
      <point x="419.0" y="104.0" type="curve" smooth="yes"/>
      <point x="419.0" y="46.0"/>
      <point x="373.0" y="0.0"/>
      <point x="314.0" y="0.0" type="curve" smooth="yes"/>
      <point x="50.0" y="0.0" type="line"/>
      <point x="50.0" y="105.0" type="line"/>
      <point x="333.0" y="105.0" type="line"/>
      <point x="326.0" y="97.65"/>
      <point x="320.0" y="91.35"/>
      <point x="313.0" y="84.0" type="curve"/>
      <point x="317.0" y="195.0"/>
      <point x="229.0" y="247.0"/>
    </contour>
    <component base="arTah.above" xOffset="193.0" yOffset="480.0" identifier="mark_arTah.above"/>
    <component base="ar3Dot.above" xOffset="193.0" yOffset="480.0" identifier="mark_ar3Dot.above"/>
    <component base="ar1Dot.above" xOffset="193.0" yOffset="480.0" identifier="mark_ar1Dot.above"/>
    <component base="uni0652" xOffset="193.0" yOffset="516.0" identifier="mark_uni0652"/>
    <component base="uni064F" xOffset="193.0" yOffset="514.0" identifier="mark_uni064F"/>
    <component base="uni064C" xOffset="193.0" yOffset="513.0" identifier="mark_uni064C"/>
    <component base="ar3IDot.below" xOffset="189.0" yOffset="-72.0" identifier="mark_ar3IDot.below"/>
    <component base="ar2Dot.below" xOffset="189.0" yOffset="-72.0" identifier="mark_ar2Dot.below"/>
    <component base="uni0656" xOffset="189.0" yOffset="-72.0" identifier="mark_uni0656"/>
    <component base="uni064D" xOffset="189.0" yOffset="-102.0" identifier="mark_uni064D"/>
    <component base="uni0650" xOffset="189.0" yOffset="-93.0" identifier="mark_uni0650"/>
    <component base="ar1Dot.below" xOffset="189.0" yOffset="-72.0" identifier="mark_ar1Dot.below"/>
    <component base="ar3Dot.below" xOffset="189.0" yOffset="-72.0" identifier="mark_ar3Dot.below"/>
    <component base="uni064B" xOffset="193.0" yOffset="518.0" identifier="mark_uni064B"/>
    <component base="uni064E" xOffset="193.0" yOffset="501.0" identifier="mark_uni064E"/>
    <component base="uni0651" xOffset="193.0" yOffset="518.0" identifier="mark_uni0651"/>
    <component base="uni0670" xOffset="193.0" yOffset="480.0" identifier="mark_uni0670"/>
    <component base="ar2Dot.above" xOffset="193.0" yOffset="480.0" identifier="mark_ar2Dot.above"/>
    <component base="ar3IDot.above" xOffset="193.0" yOffset="480.0" identifier="mark_ar3IDot.above"/>
  </outline>
</glyph>
<glyph name="arDamma.above" format="2">
  <anchor x="0" y="0" name="_hamzaAbove"/>
  <anchor x="105" y="0" name="_dammaHamza"/>
  <outline>
    <contour>
      <point x="-31" y="-36" type="line"/>
      <point x="29" y="-10"/>
      <point x="56" y="36"/>
      <point x="56" y="85" type="curve" smooth="yes"/>
      <point x="56" y="133"/>
      <point x="36" y="159"/>
      <point x="0" y="159" type="curve" smooth="yes"/>
      <point x="-24" y="159"/>
      <point x="-45" y="142"/>
      <point x="-45" y="110" type="curve" smooth="yes"/>
      <point x="-45" y="82"/>
      <point x="-22" y="67"/>
      <point x="0" y="67" type="curve" smooth="yes"/>
      <point x="14" y="67"/>
      <point x="26" y="73"/>
      <point x="36" y="84" type="curve"/>
      <point x="0" y="125" type="line"/>
      <point x="9" y="74" type="line"/>
      <point x="9" y="42"/>
      <point x="-10" y="18"/>
      <point x="-50" y="0" type="curve"/>
    </contour>
  </outline>
</glyph>
<glyph name="arFeh.fina" format="2">
  <advance width="875"/>
  <outline>
    <contour>
      <point x="895.0" y="105.0" type="line"/>
      <point x="895.0" y="0.0" type="line"/>
      <point x="696.0" y="0.0" type="line" smooth="yes"/>
      <point x="612.0" y="0.0"/>
      <point x="508.0" y="-14.0"/>
      <point x="445.0" y="90.0" type="curve" smooth="yes"/>
      <point x="387.0" y="186.0"/>
      <point x="437.0" y="297.0"/>
      <point x="506.0" y="342.0" type="curve" smooth="yes"/>
      <point x="583.0" y="391.0"/>
      <point x="713.0" y="386.0"/>
      <point x="774.0" y="290.0" type="curve" smooth="yes"/>
      <point x="791.0" y="262.0"/>
      <point x="800.0" y="228.0"/>
      <point x="800.0" y="191.0" type="curve" smooth="yes"/>
      <point x="800.0" y="-93.0" type="line" smooth="yes"/>
      <point x="800.0" y="-148.0"/>
      <point x="756.0" y="-200.0"/>
      <point x="693.0" y="-200.0" type="curve" smooth="yes"/>
      <point x="201.0" y="-200.0" type="line" smooth="yes"/>
      <point x="120.0" y="-200.0"/>
      <point x="50.0" y="-142.0"/>
      <point x="50.0" y="-53.0" type="curve" smooth="yes"/>
      <point x="50.0" y="99.0" type="line"/>
      <point x="154.0" y="99.0" type="line"/>
      <point x="154.0" y="-53.0" type="line" smooth="yes"/>
      <point x="154.0" y="-80.0"/>
      <point x="168.0" y="-94.0"/>
      <point x="201.0" y="-94.0" type="curve" smooth="yes"/>
      <point x="715.0" y="-94.0" type="line"/>
      <point x="708.35" y="-101.0"/>
      <point x="702.65" y="-107.0"/>
      <point x="696.0" y="-114.0" type="curve"/>
      <point x="696.0" y="191.0" type="line" smooth="yes"/>
      <point x="696.0" y="221.0"/>
      <point x="680.0" y="243.0"/>
      <point x="657.0" y="256.0" type="curve" smooth="yes"/>
      <point x="629.0" y="272.0"/>
      <point x="591.0" y="272.0"/>
      <point x="562.0" y="254.0" type="curve" smooth="yes"/>
      <point x="533.0" y="235.0"/>
      <point x="513.0" y="180.0"/>
      <point x="535.0" y="144.0" type="curve" smooth="yes"/>
      <point x="562.0" y="99.0"/>
      <point x="591.0" y="105.0"/>
      <point x="696.0" y="105.0" type="curve" smooth="yes"/>
    </contour>
    <component base="arTah.above" xOffset="604.0" yOffset="479.0" identifier="mark_arTah.above"/>
    <component base="ar3Dot.above" xOffset="604.0" yOffset="479.0" identifier="mark_ar3Dot.above"/>
    <component base="ar1Dot.above" xOffset="604.0" yOffset="479.0" identifier="mark_ar1Dot.above"/>
    <component base="uni0652" xOffset="604.0" yOffset="515.0" identifier="mark_uni0652"/>
    <component base="uni064F" xOffset="604.0" yOffset="513.0" identifier="mark_uni064F"/>
    <component base="uni064C" xOffset="604.0" yOffset="512.0" identifier="mark_uni064C"/>
    <component base="ar3IDot.below" xOffset="414.0" yOffset="-299.0" identifier="mark_ar3IDot.below"/>
    <component base="ar2Dot.below" xOffset="414.0" yOffset="-299.0" identifier="mark_ar2Dot.below"/>
    <component base="uni0656" xOffset="414.0" yOffset="-299.0" identifier="mark_uni0656"/>
    <component base="uni064D" xOffset="414.0" yOffset="-329.0" identifier="mark_uni064D"/>
    <component base="uni0650" xOffset="414.0" yOffset="-320.0" identifier="mark_uni0650"/>
    <component base="ar1Dot.below" xOffset="414.0" yOffset="-299.0" identifier="mark_ar1Dot.below"/>
    <component base="ar3Dot.below" xOffset="414.0" yOffset="-299.0" identifier="mark_ar3Dot.below"/>
    <component base="uni064B" xOffset="604.0" yOffset="517.0" identifier="mark_uni064B"/>
    <component base="uni064E" xOffset="604.0" yOffset="500.0" identifier="mark_uni064E"/>
    <component base="uni0651" xOffset="604.0" yOffset="517.0" identifier="mark_uni0651"/>
    <component base="uni0670" xOffset="604.0" yOffset="479.0" identifier="mark_uni0670"/>
    <component base="ar2Dot.above" xOffset="604.0" yOffset="479.0" identifier="mark_ar2Dot.above"/>
    <component base="ar3IDot.above" xOffset="604.0" yOffset="479.0" identifier="mark_ar3IDot.above"/>
  </outline>
</glyph>
<glyph name="arFeh.init" format="2">
  <advance width="510"/>
  <outline>
    <contour>
      <point x="0.0" y="105.0" type="line"/>
      <point x="374.0" y="105.0" type="line"/>
      <point x="367.0" y="98.35"/>
      <point x="361.0" y="92.65"/>
      <point x="354.0" y="86.0" type="curve"/>
      <point x="354.0" y="331.0" type="line" smooth="yes"/>
      <point x="354.0" y="368.0"/>
      <point x="328.0" y="396.0"/>
      <point x="295.0" y="405.0" type="curve" smooth="yes"/>
      <point x="272.0" y="411.0"/>
      <point x="245.0" y="409.0"/>
      <point x="221.0" y="394.0" type="curve" smooth="yes"/>
      <point x="192.0" y="375.0"/>
      <point x="172.0" y="320.0"/>
      <point x="194.0" y="284.0" type="curve" smooth="yes"/>
      <point x="221.0" y="239.0"/>
      <point x="243.0" y="228.0"/>
      <point x="408.0" y="236.0" type="curve"/>
      <point x="408.0" y="160.0" type="line"/>
      <point x="300.0" y="156.0"/>
      <point x="167.0" y="126.0"/>
      <point x="104.0" y="230.0" type="curve" smooth="yes"/>
      <point x="46.0" y="326.0"/>
      <point x="96.0" y="437.0"/>
      <point x="165.0" y="482.0" type="curve" smooth="yes"/>
      <point x="242.0" y="531.0"/>
      <point x="372.0" y="526.0"/>
      <point x="433.0" y="430.0" type="curve" smooth="yes"/>
      <point x="450.0" y="402.0"/>
      <point x="460.0" y="368.0"/>
      <point x="460.0" y="331.0" type="curve" smooth="yes"/>
      <point x="460.0" y="107.0" type="line" smooth="yes"/>
      <point x="460.0" y="52.0"/>
      <point x="415.0" y="0.0"/>
      <point x="352.0" y="0.0" type="curve" smooth="yes"/>
      <point x="0.0" y="0.0" type="line"/>
    </contour>
  </outline>
</glyph>
<glyph name="arFeh.isol" format="2">
  <advance width="851"/>
  <outline>
    <contour>
      <point x="749.0" y="19.0" type="line"/>
      <point x="641.0" y="15.0"/>
      <point x="509.0" y="-15.0"/>
      <point x="446.0" y="89.0" type="curve" smooth="yes"/>
      <point x="388.0" y="185.0"/>
      <point x="437.0" y="296.0"/>
      <point x="506.0" y="341.0" type="curve" smooth="yes"/>
      <point x="583.0" y="390.0"/>
      <point x="713.0" y="385.0"/>
      <point x="774.0" y="289.0" type="curve" smooth="yes"/>
      <point x="791.0" y="261.0"/>
      <point x="801.0" y="227.0"/>
      <point x="801.0" y="190.0" type="curve" smooth="yes"/>
      <point x="801.0" y="-93.0" type="line" smooth="yes"/>
      <point x="801.0" y="-148.0"/>
      <point x="756.0" y="-200.0"/>
      <point x="693.0" y="-200.0" type="curve" smooth="yes"/>
      <point x="201.0" y="-200.0" type="line" smooth="yes"/>
      <point x="120.0" y="-200.0"/>
      <point x="50.0" y="-142.0"/>
      <point x="50.0" y="-53.0" type="curve" smooth="yes"/>
      <point x="50.0" y="99.0" type="line"/>
      <point x="155.0" y="99.0" type="line"/>
      <point x="155.0" y="-53.0" type="line" smooth="yes"/>
      <point x="155.0" y="-80.0"/>
      <point x="168.0" y="-94.0"/>
      <point x="201.0" y="-94.0" type="curve" smooth="yes"/>
      <point x="715.0" y="-94.0" type="line"/>
      <point x="708.35" y="-101.0"/>
      <point x="702.65" y="-107.0"/>
      <point x="696.0" y="-114.0" type="curve"/>
      <point x="696.0" y="190.0" type="line" smooth="yes"/>
      <point x="696.0" y="227.0"/>
      <point x="670.0" y="255.0"/>
      <point x="637.0" y="264.0" type="curve" smooth="yes"/>
      <point x="614.0" y="270.0"/>
      <point x="587.0" y="268.0"/>
      <point x="563.0" y="253.0" type="curve" smooth="yes"/>
      <point x="534.0" y="234.0"/>
      <point x="513.0" y="179.0"/>
      <point x="535.0" y="143.0" type="curve" smooth="yes"/>
      <point x="562.0" y="98.0"/>
      <point x="584.0" y="87.0"/>
      <point x="749.0" y="95.0" type="curve"/>
    </contour>
    <component base="arTah.above" xOffset="604.0" yOffset="479.0" identifier="mark_arTah.above"/>
    <component base="ar3Dot.above" xOffset="604.0" yOffset="479.0" identifier="mark_ar3Dot.above"/>
    <component base="ar1Dot.above" xOffset="604.0" yOffset="479.0" identifier="mark_ar1Dot.above"/>
    <component base="uni0652" xOffset="604.0" yOffset="515.0" identifier="mark_uni0652"/>
    <component base="uni064F" xOffset="604.0" yOffset="513.0" identifier="mark_uni064F"/>
    <component base="uni064C" xOffset="604.0" yOffset="512.0" identifier="mark_uni064C"/>
    <component base="ar3IDot.below" xOffset="414.0" yOffset="-299.0" identifier="mark_ar3IDot.below"/>
    <component base="ar2Dot.below" xOffset="414.0" yOffset="-299.0" identifier="mark_ar2Dot.below"/>
    <component base="uni0656" xOffset="414.0" yOffset="-299.0" identifier="mark_uni0656"/>
    <component base="uni064D" xOffset="414.0" yOffset="-329.0" identifier="mark_uni064D"/>
    <component base="uni0650" xOffset="414.0" yOffset="-320.0" identifier="mark_uni0650"/>
    <component base="ar1Dot.below" xOffset="414.0" yOffset="-299.0" identifier="mark_ar1Dot.below"/>
    <component base="ar3Dot.below" xOffset="414.0" yOffset="-299.0" identifier="mark_ar3Dot.below"/>
    <component base="uni064B" xOffset="604.0" yOffset="517.0" identifier="mark_uni064B"/>
    <component base="uni064E" xOffset="604.0" yOffset="500.0" identifier="mark_uni064E"/>
    <component base="uni0651" xOffset="604.0" yOffset="517.0" identifier="mark_uni0651"/>
    <component base="uni0670" xOffset="604.0" yOffset="479.0" identifier="mark_uni0670"/>
    <component base="ar2Dot.above" xOffset="604.0" yOffset="479.0" identifier="mark_ar2Dot.above"/>
    <component base="ar3IDot.above" xOffset="604.0" yOffset="479.0" identifier="mark_ar3IDot.above"/>
  </outline>
</glyph>
<glyph name="arGaf.above" format="2">
  <anchor x="0" y="0" name="_arGaf.above"/>
  <outline>
    <contour>
      <point x="-145.0" y="-59.0" type="curve"/>
      <point x="-182.0" y="0.0" type="line"/>
      <point x="-73.0" y="67.0"/>
      <point x="132.0" y="113.0"/>
      <point x="180.0" y="114.0" type="curve"/>
      <point x="182.0" y="45.0" type="line"/>
      <point x="156.0" y="44.0"/>
      <point x="-56.0" y="-4.0"/>
    </contour>
  </outline>
</glyph>
<glyph name="arGaf.isol" format="2">
  <advance width="750"/>
  <outline>
    <contour>
      <point x="152.0" y="105.0" type="line"/>
      <point x="239.0" y="0.0" type="line"/>
      <point x="137.0" y="0.0" type="line"/>
      <point x="50.0" y="105.0" type="line"/>
    </contour>
    <component base="arKaf.medi" xOffset="137.0"/>
    <component base="arGaf.above" xOffset="508.0" yOffset="678.0" identifier="mark_arGaf.above"/>
    <component base="ar3Dot.below" xOffset="260.0" yOffset="-149.0" identifier="mark_ar3Dot.below"/>
    <component base="ar1Dot.below" xOffset="260.0" yOffset="-149.0" identifier="mark_ar1Dot.below"/>
    <component base="uni0650" xOffset="260.0" yOffset="-170.0" identifier="mark_uni0650"/>
    <component base="arTah.above" xOffset="226.0" yOffset="650.0" identifier="mark_arTah.above"/>
    <component base="ar3Dot.above" xOffset="226.0" yOffset="650.0" identifier="mark_ar3Dot.above"/>
    <component base="ar1Dot.above" xOffset="226.0" yOffset="650.0" identifier="mark_ar1Dot.above"/>
    <component base="uni0652" xOffset="226.0" yOffset="686.0" identifier="mark_uni0652"/>
    <component base="uni064F" xOffset="226.0" yOffset="684.0" identifier="mark_uni064F"/>
    <component base="uni064C" xOffset="226.0" yOffset="683.0" identifier="mark_uni064C"/>
    <component base="uni064B" xOffset="226.0" yOffset="688.0" identifier="mark_uni064B"/>
    <component base="uni064E" xOffset="226.0" yOffset="671.0" identifier="mark_uni064E"/>
    <component base="uni0651" xOffset="226.0" yOffset="688.0" identifier="mark_uni0651"/>
    <component base="uni0670" xOffset="226.0" yOffset="650.0" identifier="mark_uni0670"/>
    <component base="ar2Dot.above" xOffset="226.0" yOffset="650.0" identifier="mark_ar2Dot.above"/>
    <component base="ar3IDot.above" xOffset="226.0" yOffset="650.0" identifier="mark_ar3IDot.above"/>
    <component base="uni064D" xOffset="260.0" yOffset="-179.0" identifier="mark_uni064D"/>
    <component base="uni0656" xOffset="260.0" yOffset="-149.0" identifier="mark_uni0656"/>
    <component base="ar2Dot.below" xOffset="260.0" yOffset="-149.0" identifier="mark_ar2Dot.below"/>
    <component base="ar3IDot.below" xOffset="260.0" yOffset="-149.0" identifier="mark_ar3IDot.below"/>
  </outline>
</glyph>
<glyph name="arHah.init" format="2">
  <advance width="612"/>
  <outline>
    <contour>
      <point x="0.0" y="0.0" type="line"/>
      <point x="0.0" y="105.0" type="line"/>
      <point x="388.0" y="105.0" type="line"/>
      <point x="385.2" y="101.15"/>
      <point x="382.8" y="97.85"/>
      <point x="380.0" y="94.0" type="curve"/>
      <point x="372.0" y="101.0"/>
      <point x="362.0" y="109.0"/>
      <point x="353.0" y="118.0" type="curve" smooth="yes"/>
      <point x="311.0" y="157.0"/>
      <point x="265.0" y="208.0"/>
      <point x="228.0" y="234.0" type="curve" smooth="yes"/>
      <point x="182.0" y="267.0"/>
      <point x="136.0" y="278.0"/>
      <point x="95.0" y="288.0" type="curve"/>
      <point x="119.0" y="390.0" type="line"/>
      <point x="160.0" y="380.0"/>
      <point x="224.0" y="365.0"/>
      <point x="288.0" y="320.0" type="curve" smooth="yes"/>
      <point x="347.0" y="278.0"/>
      <point x="395.0" y="221.0"/>
      <point x="434.0" y="187.0" type="curve" smooth="yes"/>
      <point x="486.0" y="141.0"/>
      <point x="492.0" y="144.0"/>
      <point x="559.0" y="144.0" type="curve"/>
      <point x="562.0" y="95.0" type="line" smooth="yes"/>
      <point x="564.0" y="60.0"/>
      <point x="545.0" y="0.0"/>
      <point x="483.0" y="0.0" type="curve" smooth="yes"/>
    </contour>
    <component base="ar3IDot.below" xOffset="253.0" yOffset="-150.0" identifier="mark_ar3IDot.below"/>
    <component base="ar2Dot.below" xOffset="253.0" yOffset="-150.0" identifier="mark_ar2Dot.below"/>
    <component base="uni0656" xOffset="253.0" yOffset="-150.0" identifier="mark_uni0656"/>
    <component base="uni064D" xOffset="253.0" yOffset="-180.0" identifier="mark_uni064D"/>
    <component base="ar3IDot.above" xOffset="188.0" yOffset="487.0" identifier="mark_ar3IDot.above"/>
    <component base="ar2Dot.above" xOffset="188.0" yOffset="487.0" identifier="mark_ar2Dot.above"/>
    <component base="uni0670" xOffset="188.0" yOffset="487.0" identifier="mark_uni0670"/>
    <component base="uni0651" xOffset="188.0" yOffset="525.0" identifier="mark_uni0651"/>
    <component base="uni064E" xOffset="188.0" yOffset="508.0" identifier="mark_uni064E"/>
    <component base="uni064B" xOffset="188.0" yOffset="525.0" identifier="mark_uni064B"/>
    <component base="uni064C" xOffset="188.0" yOffset="520.0" identifier="mark_uni064C"/>
    <component base="uni064F" xOffset="188.0" yOffset="521.0" identifier="mark_uni064F"/>
    <component base="uni0652" xOffset="188.0" yOffset="523.0" identifier="mark_uni0652"/>
    <component base="ar1Dot.above" xOffset="188.0" yOffset="487.0" identifier="mark_ar1Dot.above"/>
    <component base="ar3Dot.above" xOffset="188.0" yOffset="487.0" identifier="mark_ar3Dot.above"/>
    <component base="arTah.above" xOffset="188.0" yOffset="487.0" identifier="mark_arTah.above"/>
    <component base="uni0650" xOffset="253.0" yOffset="-171.0" identifier="mark_uni0650"/>
    <component base="ar1Dot.below" xOffset="253.0" yOffset="-150.0" identifier="mark_ar1Dot.below"/>
    <component base="ar3Dot.below" xOffset="253.0" yOffset="-150.0" identifier="mark_ar3Dot.below"/>
  </outline>
</glyph>
<glyph name="arHah.isol" format="2">
  <advance width="568"/>
  <anchor x="273.0" y="-4.0" name="dotBelow"/>
  <anchor x="273.0" y="-244.0" name="markBelow"/>
  <anchor x="253.0" y="548.0" name="dotAbove"/>
  <anchor x="253.0" y="586.0" name="markAbove"/>
  <anchor x="253.0" y="548.0" name="hamzaAbove"/>
  <outline>
    <contour>
      <point x="427.0" y="-94.0" type="line"/>
      <point x="427.0" y="-200.0" type="line"/>
      <point x="186.0" y="-200.0" type="line" smooth="yes"/>
      <point x="107.99359000697444" y="-200.0"/>
      <point x="50.0" y="-142.0"/>
      <point x="50.0" y="-67.0" type="curve" smooth="yes"/>
      <point x="50.0" y="58.0" type="line" smooth="yes"/>
      <point x="50.0" y="130.0"/>
      <point x="105.0" y="196.0"/>
      <point x="190.0" y="196.0" type="curve" smooth="yes"/>
      <point x="327.0" y="196.0" type="line"/>
      <point x="324.0" y="200.0"/>
      <point x="322.0" y="201.0"/>
      <point x="320.0" y="204.0" type="curve"/>
      <point x="274.0" y="255.0"/>
      <point x="241.0" y="316.0"/>
      <point x="146.0" y="352.0" type="curve"/>
      <point x="184.0" y="450.0" type="line"/>
      <point x="311.0" y="402.0"/>
      <point x="366.0" y="309.0"/>
      <point x="398.0" y="274.0" type="curve" smooth="yes"/>
      <point x="446.0" y="221.0"/>
      <point x="450.0" y="227.0"/>
      <point x="518.0" y="227.0" type="curve"/>
      <point x="518.0" y="174.0" type="line" smooth="yes"/>
      <point x="518.0" y="151.0"/>
      <point x="501.0" y="91.0"/>
      <point x="439.0" y="91.0" type="curve" smooth="yes"/>
      <point x="189.0" y="91.0" type="line" smooth="yes"/>
      <point x="172.0" y="91.0"/>
      <point x="154.0" y="78.0"/>
      <point x="154.0" y="58.0" type="curve" smooth="yes"/>
      <point x="154.0" y="-67.0" type="line" smooth="yes"/>
      <point x="154.0" y="-84.0"/>
      <point x="164.0" y="-94.0"/>
      <point x="186.0" y="-94.0" type="curve" smooth="yes"/>
    </contour>
  </outline>
</glyph>
<glyph name="arHah.isol2" format="2">
  <advance width="568"/>
  <outline>
    <contour>
      <point x="50.0" y="-158.0" type="curve" smooth="yes"/>
      <point x="50.0" y="-33.0" type="line" smooth="yes"/>
      <point x="50.0" y="39.0"/>
      <point x="105.0" y="105.0"/>
      <point x="190.0" y="105.0" type="curve" smooth="yes"/>
      <point x="327.0" y="105.0" type="line"/>
      <point x="323.0" y="109.0"/>
      <point x="322.0" y="110.0"/>
      <point x="320.0" y="113.0" type="curve"/>
      <point x="274.0" y="164.0"/>
      <point x="241.0" y="225.0"/>
      <point x="146.0" y="261.0" type="curve"/>
      <point x="184.0" y="359.0" type="line"/>
      <point x="311.0" y="311.0"/>
      <point x="366.0" y="218.0"/>
      <point x="398.0" y="183.0" type="curve" smooth="yes"/>
      <point x="446.0" y="130.0"/>
      <point x="450.0" y="136.0"/>
      <point x="518.0" y="136.0" type="curve"/>
      <point x="518.0" y="83.0" type="line" smooth="yes"/>
      <point x="518.0" y="60.0"/>
      <point x="501.0" y="0.0"/>
      <point x="439.0" y="0.0" type="curve" smooth="yes"/>
      <point x="191.0" y="0.0" type="line" smooth="yes"/>
      <point x="174.0" y="0.0"/>
      <point x="156.0" y="-13.0"/>
      <point x="156.0" y="-33.0" type="curve" smooth="yes"/>
      <point x="156.0" y="-267.0" type="line"/>
      <point x="90.0" y="-267.0"/>
      <point x="50.0" y="-221.0"/>
    </contour>
    <component base="ar3IDot.below" xOffset="333.0" yOffset="-94.0" identifier="mark_ar3IDot.below"/>
    <component base="ar2Dot.below" xOffset="333.0" yOffset="-94.0" identifier="mark_ar2Dot.below"/>
    <component base="uni0656" xOffset="334.0" yOffset="-94.0" identifier="mark_uni0656"/>
    <component base="uni064D" xOffset="334.0" yOffset="-124.0" identifier="mark_uni064D"/>
    <component base="ar3IDot.above" xOffset="253.0" yOffset="457.0" identifier="mark_ar3IDot.above"/>
    <component base="ar2Dot.above" xOffset="253.0" yOffset="457.0" identifier="mark_ar2Dot.above"/>
    <component base="uni0670" xOffset="253.0" yOffset="457.0" identifier="mark_uni0670"/>
    <component base="uni0651" xOffset="253.0" yOffset="495.0" identifier="mark_uni0651"/>
    <component base="uni064E" xOffset="253.0" yOffset="478.0" identifier="mark_uni064E"/>
    <component base="uni064B" xOffset="253.0" yOffset="495.0" identifier="mark_uni064B"/>
    <component base="uni064C" xOffset="253.0" yOffset="490.0" identifier="mark_uni064C"/>
    <component base="uni064F" xOffset="253.0" yOffset="491.0" identifier="mark_uni064F"/>
    <component base="uni0652" xOffset="253.0" yOffset="493.0" identifier="mark_uni0652"/>
    <component base="ar1Dot.above" xOffset="253.0" yOffset="457.0" identifier="mark_ar1Dot.above"/>
    <component base="ar3Dot.above" xOffset="253.0" yOffset="457.0" identifier="mark_ar3Dot.above"/>
    <component base="arTah.above" xOffset="253.0" yOffset="457.0" identifier="mark_arTah.above"/>
    <component base="uni0650" xOffset="334.0" yOffset="-115.0" identifier="mark_uni0650"/>
    <component base="ar1Dot.below" xOffset="333.0" yOffset="-94.0" identifier="mark_ar1Dot.below"/>
    <component base="ar3Dot.below" xOffset="333.0" yOffset="-94.0" identifier="mark_ar3Dot.below"/>
  </outline>
</glyph>
<glyph name="arHeh.fina2" format="2">
  <advance width="370"/>
  <anchor x="224.0" y="-109.0" name="dotBelow"/>
  <anchor x="224.0" y="-139.0" name="markBelow"/>
  <anchor x="204.0" y="321.0" name="dotAbove"/>
  <anchor x="204.0" y="321.0" name="hamzaAbove"/>
  <anchor x="204.0" y="359.0" name="markAbove"/>
  <anchor x="204.0" y="321.0" name="kafAbove"/>
  <outline>
    <contour>
      <point x="210.0" y="-41.0" type="line"/>
      <point x="105.0" y="-41.0" type="line"/>
      <point x="105.0" y="41.0" type="line" smooth="yes"/>
      <point x="105.0" y="101.0"/>
      <point x="154.0" y="145.0"/>
      <point x="211.0" y="145.0" type="curve" smooth="yes"/>
      <point x="390.0" y="145.0" type="line"/>
      <point x="390.0" y="40.0" type="line"/>
      <point x="191.0" y="40.0" type="line" smooth="yes"/>
      <point x="190.0" y="40.0"/>
      <point x="210.0" y="61.0"/>
      <point x="210.0" y="61.0" type="curve"/>
    </contour>
  </outline>
</glyph>
<glyph name="arHeh.init" format="2">
  <advance width="719"/>
  <outline>
    <contour>
      <point x="248.0" y="396.0" type="curve"/>
      <point x="250.0" y="500.0" type="line"/>
      <point x="540.0" y="496.0"/>
      <point x="673.0" y="281.0"/>
      <point x="669.0" y="105.0" type="curve" smooth="yes"/>
      <point x="668.0" y="46.0"/>
      <point x="622.0" y="0.0"/>
      <point x="564.0" y="0.0" type="curve" smooth="yes"/>
      <point x="0.0" y="0.0" type="line"/>
      <point x="0.0" y="105.0" type="line"/>
      <point x="584.0" y="105.0" type="line"/>
      <point x="576.65" y="98.35"/>
      <point x="570.35" y="92.65"/>
      <point x="563.0" y="86.0" type="curve"/>
      <point x="569.0" y="237.0"/>
      <point x="477.0" y="392.0"/>
    </contour>
    <contour>
      <point x="224.0" y="103.0" type="line"/>
      <point x="120.0" y="103.0" type="line"/>
      <point x="120.0" y="200.0" type="line" smooth="yes"/>
      <point x="120.0" y="250.0"/>
      <point x="142.0" y="295.0"/>
      <point x="180.0" y="320.0" type="curve" smooth="yes"/>
      <point x="259.0" y="372.0"/>
      <point x="371.0" y="336.0"/>
      <point x="434.0" y="239.0" type="curve" smooth="yes"/>
      <point x="455.0" y="206.0"/>
      <point x="467.0" y="173.0"/>
      <point x="468.0" y="140.0" type="curve" smooth="yes"/>
      <point x="470.0" y="49.0"/>
      <point x="390.0" y="2.0"/>
      <point x="323.0" y="1.0" type="curve"/>
      <point x="321.0" y="105.0" type="line"/>
      <point x="349.0" y="105.0"/>
      <point x="363.0" y="122.0"/>
      <point x="363.0" y="138.0" type="curve" smooth="yes"/>
      <point x="363.0" y="146.0"/>
      <point x="359.0" y="161.0"/>
      <point x="346.0" y="181.0" type="curve" smooth="yes"/>
      <point x="304.0" y="245.0"/>
      <point x="253.0" y="242.0"/>
      <point x="238.0" y="232.0" type="curve" smooth="yes"/>
      <point x="231.0" y="227.0"/>
      <point x="224.0" y="220.0"/>
      <point x="224.0" y="200.0" type="curve" smooth="yes"/>
    </contour>
    <component base="arTah.above" xOffset="336.0" yOffset="628.0" identifier="mark_arTah.above"/>
    <component base="ar3Dot.above" xOffset="336.0" yOffset="628.0" identifier="mark_ar3Dot.above"/>
    <component base="ar1Dot.above" xOffset="336.0" yOffset="628.0" identifier="mark_ar1Dot.above"/>
    <component base="uni0652" xOffset="336.0" yOffset="664.0" identifier="mark_uni0652"/>
    <component base="uni064F" xOffset="336.0" yOffset="662.0" identifier="mark_uni064F"/>
    <component base="uni064C" xOffset="336.0" yOffset="661.0" identifier="mark_uni064C"/>
    <component base="ar3IDot.below" xOffset="336.0" yOffset="-149.0" identifier="mark_ar3IDot.below"/>
    <component base="ar2Dot.below" xOffset="336.0" yOffset="-149.0" identifier="mark_ar2Dot.below"/>
    <component base="uni0656" xOffset="336.0" yOffset="-149.0" identifier="mark_uni0656"/>
    <component base="uni064D" xOffset="336.0" yOffset="-179.0" identifier="mark_uni064D"/>
    <component base="uni0650" xOffset="336.0" yOffset="-170.0" identifier="mark_uni0650"/>
    <component base="ar1Dot.below" xOffset="336.0" yOffset="-149.0" identifier="mark_ar1Dot.below"/>
    <component base="ar3Dot.below" xOffset="336.0" yOffset="-149.0" identifier="mark_ar3Dot.below"/>
    <component base="uni064B" xOffset="336.0" yOffset="666.0" identifier="mark_uni064B"/>
    <component base="uni064E" xOffset="336.0" yOffset="649.0" identifier="mark_uni064E"/>
    <component base="uni0651" xOffset="336.0" yOffset="666.0" identifier="mark_uni0651"/>
    <component base="uni0670" xOffset="336.0" yOffset="628.0" identifier="mark_uni0670"/>
    <component base="ar2Dot.above" xOffset="336.0" yOffset="628.0" identifier="mark_ar2Dot.above"/>
    <component base="ar3IDot.above" xOffset="336.0" yOffset="628.0" identifier="mark_ar3IDot.above"/>
  </outline>
</glyph>
<glyph name="arHeh.init2" format="2">
  <advance width="382"/>
  <outline>
    <contour>
      <point x="210.0" y="256.0" type="line"/>
      <point x="315.0" y="256.0" type="line"/>
      <point x="315.0" y="104.0" type="line" smooth="yes"/>
      <point x="315.0" y="44.0"/>
      <point x="266.0" y="0.0"/>
      <point x="209.0" y="0.0" type="curve" smooth="yes"/>
      <point x="0.0" y="0.0" type="line"/>
      <point x="0.0" y="105.0" type="line"/>
      <point x="229.0" y="105.0" type="line" smooth="yes"/>
      <point x="230.0" y="105.0"/>
      <point x="210.0" y="84.0"/>
      <point x="210.0" y="84.0" type="curve"/>
    </contour>
    <contour>
      <point x="284.0" y="-141.0" type="curve"/>
      <point x="332.0" y="-177.0" type="line"/>
      <point x="266.0" y="-250.0"/>
      <point x="199.0" y="-247.0"/>
      <point x="167.0" y="-223.0" type="curve" smooth="yes"/>
      <point x="140.0" y="-202.0"/>
      <point x="125.0" y="-165.0"/>
      <point x="134.0" y="-116.0" type="curve" smooth="yes"/>
      <point x="149.0" y="-35.0"/>
      <point x="172.0" y="-1.0"/>
      <point x="236.0" y="67.0" type="curve"/>
      <point x="284.0" y="29.0" type="line"/>
      <point x="248.0" y="-6.0"/>
      <point x="229.0" y="-29.0"/>
      <point x="218.0" y="-86.0" type="curve" smooth="yes"/>
      <point x="210.0" y="-126.0"/>
      <point x="232.0" y="-180.0"/>
    </contour>
    <component base="arTah.above" xOffset="119.0" yOffset="491.0" identifier="mark_arTah.above"/>
    <component base="ar3Dot.above" xOffset="119.0" yOffset="491.0" identifier="mark_ar3Dot.above"/>
    <component base="ar1Dot.above" xOffset="119.0" yOffset="491.0" identifier="mark_ar1Dot.above"/>
    <component base="uni0652" xOffset="119.0" yOffset="527.0" identifier="mark_uni0652"/>
    <component base="uni064F" xOffset="119.0" yOffset="525.0" identifier="mark_uni064F"/>
    <component base="uni064C" xOffset="119.0" yOffset="524.0" identifier="mark_uni064C"/>
    <component base="uni064B" xOffset="119.0" yOffset="529.0" identifier="mark_uni064B"/>
    <component base="uni064E" xOffset="119.0" yOffset="512.0" identifier="mark_uni064E"/>
    <component base="uni0651" xOffset="119.0" yOffset="529.0" identifier="mark_uni0651"/>
    <component base="uni0670" xOffset="119.0" yOffset="491.0" identifier="mark_uni0670"/>
    <component base="ar2Dot.above" xOffset="119.0" yOffset="491.0" identifier="mark_ar2Dot.above"/>
    <component base="ar3IDot.above" xOffset="119.0" yOffset="491.0" identifier="mark_ar3IDot.above"/>
  </outline>
</glyph>
<glyph name="arHeh.isol" format="2">
  <advance width="482"/>
  <outline>
    <contour>
      <point x="347.0" y="374.0" type="line"/>
      <point x="281.0" y="243.0"/>
      <point x="220.0" y="203.0"/>
      <point x="163.0" y="149.0" type="curve" smooth="yes"/>
      <point x="150.0" y="133.0"/>
      <point x="153.0" y="123.0"/>
      <point x="163.0" y="114.0" type="curve" smooth="yes"/>
      <point x="168.0" y="109.0"/>
      <point x="177.0" y="105.0"/>
      <point x="188.0" y="105.0" type="curve" smooth="yes"/>
      <point x="348.0" y="105.0" type="line"/>
      <point x="340.65" y="98.35"/>
      <point x="334.35" y="92.65"/>
      <point x="327.0" y="86.0" type="curve"/>
      <point x="327.0" y="364.0" type="line"/>
      <point x="432.0" y="364.0" type="line"/>
      <point x="432.0" y="105.0" type="line" smooth="yes"/>
      <point x="432.0" y="45.0"/>
      <point x="387.0" y="0.0"/>
      <point x="328.0" y="0.0" type="curve" smooth="yes"/>
      <point x="188.0" y="0.0" type="line" smooth="yes"/>
      <point x="151.0" y="0.0"/>
      <point x="117.0" y="14.0"/>
      <point x="92.0" y="37.0" type="curve" smooth="yes"/>
      <point x="43.0" y="81.0"/>
      <point x="31.0" y="169.0"/>
      <point x="89.0" y="224.0" type="curve" smooth="yes"/>
      <point x="163.0" y="294.0"/>
      <point x="207.0" y="319.0"/>
      <point x="247.0" y="415.0" type="curve"/>
    </contour>
    <component base="arTah.above" xOffset="285.0" yOffset="505.0" identifier="mark_arTah.above"/>
    <component base="ar3Dot.above" xOffset="285.0" yOffset="505.0" identifier="mark_ar3Dot.above"/>
    <component base="ar1Dot.above" xOffset="285.0" yOffset="505.0" identifier="mark_ar1Dot.above"/>
    <component base="uni0652" xOffset="285.0" yOffset="541.0" identifier="mark_uni0652"/>
    <component base="uni064F" xOffset="285.0" yOffset="539.0" identifier="mark_uni064F"/>
    <component base="uni064C" xOffset="285.0" yOffset="538.0" identifier="mark_uni064C"/>
    <component base="uni0654" xOffset="285.0" yOffset="450.0" identifier="mark_uni0654"/>
    <component base="arSad.above" xOffset="285.0" yOffset="450.0" identifier="mark_arSad.above"/>
    <component base="ar3IDot.below" xOffset="259.0" yOffset="-109.0" identifier="mark_ar3IDot.below"/>
    <component base="ar2Dot.below" xOffset="259.0" yOffset="-109.0" identifier="mark_ar2Dot.below"/>
    <component base="uni0656" xOffset="259.0" yOffset="-109.0" identifier="mark_uni0656"/>
    <component base="uni064D" xOffset="259.0" yOffset="-139.0" identifier="mark_uni064D"/>
    <component base="uni0650" xOffset="259.0" yOffset="-130.0" identifier="mark_uni0650"/>
    <component base="ar1Dot.below" xOffset="259.0" yOffset="-109.0" identifier="mark_ar1Dot.below"/>
    <component base="ar3Dot.below" xOffset="259.0" yOffset="-109.0" identifier="mark_ar3Dot.below"/>
    <component base="arKaf.above" xOffset="285.0" yOffset="450.0" identifier="mark_arKaf.above"/>
    <component base="uni0653" xOffset="285.0" yOffset="450.0" identifier="mark_uni0653"/>
    <component base="uni064B" xOffset="285.0" yOffset="543.0" identifier="mark_uni064B"/>
    <component base="uni064E" xOffset="285.0" yOffset="526.0" identifier="mark_uni064E"/>
    <component base="uni0651" xOffset="285.0" yOffset="543.0" identifier="mark_uni0651"/>
    <component base="uni0670" xOffset="285.0" yOffset="505.0" identifier="mark_uni0670"/>
    <component base="ar2Dot.above" xOffset="285.0" yOffset="505.0" identifier="mark_ar2Dot.above"/>
    <component base="ar3IDot.above" xOffset="285.0" yOffset="505.0" identifier="mark_ar3IDot.above"/>
  </outline>
</glyph>
<glyph name="arHeh.medi2" format="2">
  <advance width="589"/>
  <outline>
    <contour>
      <point x="355.0" y="-252.0" type="curve"/>
      <point x="251.0" y="-272.0" type="line"/>
      <point x="234.0" y="-182.0"/>
      <point x="210.0" y="-198.0"/>
      <point x="162.0" y="-120.0" type="curve" smooth="yes"/>
      <point x="133.0" y="-73.0"/>
      <point x="131.0" y="-21.0"/>
      <point x="125.0" y="0.0" type="curve"/>
      <point x="0.0" y="0.0" type="line"/>
      <point x="0.0" y="105.0" type="line"/>
      <point x="138.0" y="105.0" type="line" smooth="yes"/>
      <point x="245.0" y="105.0"/>
      <point x="237.0" y="-40.0"/>
      <point x="252.0" y="-64.0" type="curve" smooth="yes"/>
      <point x="276.0" y="-102.0"/>
      <point x="332.0" y="-134.0"/>
    </contour>
    <contour>
      <point x="449.0" y="-271.0" type="line"/>
      <point x="344.0" y="-271.0" type="line"/>
      <point x="344.0" y="1.0" type="line" smooth="yes"/>
      <point x="344.0" y="61.0"/>
      <point x="393.0" y="105.0"/>
      <point x="450.0" y="105.0" type="curve" smooth="yes"/>
      <point x="609.0" y="105.0" type="line"/>
      <point x="609.0" y="0.0" type="line"/>
      <point x="430.0" y="0.0" type="line" smooth="yes"/>
      <point x="429.0" y="0.0"/>
      <point x="449.0" y="21.0"/>
      <point x="449.0" y="21.0" type="curve"/>
    </contour>
    <component base="ar3IDot.below" xOffset="351.0" yOffset="-401.0" identifier="mark_ar3IDot.below"/>
    <component base="ar2Dot.below" xOffset="351.0" yOffset="-401.0" identifier="mark_ar2Dot.below"/>
    <component base="uni0656" xOffset="351.0" yOffset="-401.0" identifier="mark_uni0656"/>
    <component base="uni064D" xOffset="351.0" yOffset="-431.0" identifier="mark_uni064D"/>
    <component base="ar3IDot.above" xOffset="293.0" yOffset="233.0" identifier="mark_ar3IDot.above"/>
    <component base="ar2Dot.above" xOffset="293.0" yOffset="233.0" identifier="mark_ar2Dot.above"/>
    <component base="uni0670" xOffset="293.0" yOffset="233.0" identifier="mark_uni0670"/>
    <component base="uni0651" xOffset="293.0" yOffset="271.0" identifier="mark_uni0651"/>
    <component base="uni064E" xOffset="293.0" yOffset="254.0" identifier="mark_uni064E"/>
    <component base="uni064B" xOffset="293.0" yOffset="271.0" identifier="mark_uni064B"/>
    <component base="uni064C" xOffset="293.0" yOffset="266.0" identifier="mark_uni064C"/>
    <component base="uni064F" xOffset="293.0" yOffset="267.0" identifier="mark_uni064F"/>
    <component base="uni0652" xOffset="293.0" yOffset="269.0" identifier="mark_uni0652"/>
    <component base="ar1Dot.above" xOffset="293.0" yOffset="233.0" identifier="mark_ar1Dot.above"/>
    <component base="ar3Dot.above" xOffset="293.0" yOffset="233.0" identifier="mark_ar3Dot.above"/>
    <component base="arTah.above" xOffset="293.0" yOffset="233.0" identifier="mark_arTah.above"/>
    <component base="uni0650" xOffset="351.0" yOffset="-422.0" identifier="mark_uni0650"/>
    <component base="ar1Dot.below" xOffset="351.0" yOffset="-401.0" identifier="mark_ar1Dot.below"/>
    <component base="ar3Dot.below" xOffset="351.0" yOffset="-401.0" identifier="mark_ar3Dot.below"/>
  </outline>
</glyph>
<glyph name="arKaf.above" format="2">
  <anchor x="0" y="0" name="_arKaf.above"/>
  <anchor x="0" y="328.0" name="markAbove"/>
  <outline>
    <contour>
      <point x="96.0" y="181.0" type="line"/>
      <point x="96.0" y="111.0" type="line"/>
      <point x="33.0" y="111.0" type="line"/>
      <point x="54.0" y="66.0" type="line" smooth="yes"/>
      <point x="59.0" y="54.0"/>
      <point x="70.0" y="36.0"/>
      <point x="56.0" y="18.0" type="curve" smooth="yes"/>
      <point x="44.0" y="1.0"/>
      <point x="23.0" y="0.0"/>
      <point x="14.0" y="-0.0" type="curve" smooth="yes"/>
      <point x="-96.0" y="-0.0" type="line"/>
      <point x="-96.0" y="70.0" type="line"/>
      <point x="-25.0" y="70.0" type="line"/>
      <point x="-46.0" y="114.0" type="line"/>
      <point x="-46.0" y="114.0"/>
      <point x="-62.0" y="139.0"/>
      <point x="-49.0" y="160.0" type="curve" smooth="yes"/>
      <point x="-42.0" y="171.0"/>
      <point x="-27.0" y="181.0"/>
      <point x="-4.0" y="181.0" type="curve" smooth="yes"/>
    </contour>
  </outline>
</glyph>
<glyph name="arKaf.init" format="2">
  <advance width="613"/>
  <outline>
    <contour>
      <point x="0.0" y="0.0" type="line"/>
      <point x="0.0" y="105.0" type="line"/>
      <point x="473.0" y="105.0" type="line"/>
      <point x="470.2" y="100.45"/>
      <point x="467.8" y="96.55"/>
      <point x="465.0" y="92.0" type="curve"/>
      <point x="179.0" y="384.0" type="line" smooth="yes"/>
      <point x="133.0" y="431.0"/>
      <point x="126.0" y="519.0"/>
      <point x="187.0" y="556.0" type="curve" smooth="yes"/>
      <point x="301.0" y="626.0"/>
      <point x="504.0" y="671.0"/>
      <point x="557.0" y="672.0" type="curve"/>
      <point x="559.0" y="568.0" type="line"/>
      <point x="537.0" y="567.0"/>
      <point x="319.0" y="519.0"/>
      <point x="229.0" y="460.0" type="curve"/>
      <point x="229.35" y="468.05"/>
      <point x="229.65" y="474.95"/>
      <point x="230.0" y="483.0" type="curve"/>
      <point x="535.0" y="172.0" type="line" smooth="yes"/>
      <point x="598.0" y="108.0"/>
      <point x="551.0" y="0.0"/>
      <point x="462.0" y="0.0" type="curve" smooth="yes"/>
    </contour>
    <component base="arGaf.above" xOffset="371.0" yOffset="678.0" identifier="mark_arGaf.above"/>
    <component base="ar3Dot.below" xOffset="249.0" yOffset="-149.0" identifier="mark_ar3Dot.below"/>
    <component base="ar1Dot.below" xOffset="249.0" yOffset="-149.0" identifier="mark_ar1Dot.below"/>
    <component base="uni0650" xOffset="249.0" yOffset="-170.0" identifier="mark_uni0650"/>
    <component base="arTah.above" xOffset="89.0" yOffset="650.0" identifier="mark_arTah.above"/>
    <component base="ar3Dot.above" xOffset="89.0" yOffset="650.0" identifier="mark_ar3Dot.above"/>
    <component base="ar1Dot.above" xOffset="89.0" yOffset="650.0" identifier="mark_ar1Dot.above"/>
    <component base="uni0652" xOffset="309.0" yOffset="706.0" identifier="mark_uni0652"/>
    <component base="uni064F" xOffset="309.0" yOffset="704.0" identifier="mark_uni064F"/>
    <component base="uni064C" xOffset="309.0" yOffset="703.0" identifier="mark_uni064C"/>
    <component base="uni064B" xOffset="309.0" yOffset="708.0" identifier="mark_uni064B"/>
    <component base="uni064E" xOffset="309.0" yOffset="691.0" identifier="mark_uni064E"/>
    <component base="uni0651" xOffset="309.0" yOffset="708.0" identifier="mark_uni0651"/>
    <component base="uni0670" xOffset="309.0" yOffset="670.0" identifier="mark_uni0670"/>
    <component base="ar2Dot.above" xOffset="89.0" yOffset="650.0" identifier="mark_ar2Dot.above"/>
    <component base="ar3IDot.above" xOffset="89.0" yOffset="650.0" identifier="mark_ar3IDot.above"/>
    <component base="uni064D" xOffset="249.0" yOffset="-179.0" identifier="mark_uni064D"/>
    <component base="uni0656" xOffset="249.0" yOffset="-149.0" identifier="mark_uni0656"/>
    <component base="ar2Dot.below" xOffset="249.0" yOffset="-149.0" identifier="mark_ar2Dot.below"/>
    <component base="ar3IDot.below" xOffset="249.0" yOffset="-149.0" identifier="mark_ar3IDot.below"/>
  </outline>
</glyph>
<glyph name="arKaf.isol" format="2">
  <advance width="615"/>
  <anchor x="515.0" y="673.0" name="dotAbove"/>
  <anchor x="515.0" y="709.0" name="markAbove"/>
  <anchor x="314.0" y="-109.0" name="dotBelow"/>
  <anchor x="314.0" y="-139.0" name="markBelow"/>
  <anchor x="265.0" y="271.0" name="uni0653"/>
  <anchor x="265.0" y="271.0" name="arKaf.above"/>
  <anchor x="265.0" y="271.0" name="arSad.above"/>
  <anchor x="265.0" y="271.0" name="uni0654"/>
  <outline>
    <contour>
      <point x="152.0" y="105.0" type="line"/>
      <point x="239.0" y="0.0" type="line"/>
      <point x="137.0" y="0.0" type="line"/>
      <point x="50.0" y="105.0" type="line"/>
    </contour>
    <contour>
      <point x="460.0" y="624.0" type="line"/>
      <point x="565.0" y="624.0" type="line"/>
      <point x="565.0" y="104.0" type="line" smooth="yes"/>
      <point x="565.0" y="44.0"/>
      <point x="516.0" y="0.0"/>
      <point x="459.0" y="0.0" type="curve" smooth="yes"/>
      <point x="137.0" y="0.0" type="line"/>
      <point x="137.0" y="105.0" type="line"/>
      <point x="479.0" y="105.0" type="line"/>
      <point x="472.35" y="97.65"/>
      <point x="466.65" y="91.35"/>
      <point x="460.0" y="84.0" type="curve"/>
    </contour>
  </outline>
</glyph>
<glyph name="arLam.init.1" format="2">
  <advance width="438"/>
  <anchor x="336.0" y="724.0" name="dotAbove"/>
  <anchor x="336.0" y="760.0" name="markAbove"/>
  <anchor x="336.0" y="-99.0" name="dotBelow"/>
  <anchor x="336.0" y="-129.0" name="markBelow"/>
  <outline>
    <contour>
      <point x="283.0" y="624.0" type="line"/>
      <point x="388.0" y="624.0" type="line"/>
      <point x="388.0" y="104.0" type="line" smooth="yes"/>
      <point x="388.0" y="44.0"/>
      <point x="339.0" y="0.0"/>
      <point x="282.0" y="0.0" type="curve" smooth="yes"/>
      <point x="50.0" y="0.0" type="line"/>
      <point x="50.0" y="105.0" type="line"/>
      <point x="302.0" y="105.0" type="line"/>
      <point x="295.35" y="97.65"/>
      <point x="289.65" y="91.35"/>
      <point x="283.0" y="84.0" type="curve"/>
    </contour>
  </outline>
</glyph>
<glyph name="arLam.init" format="2">
  <advance width="292"/>
  <outline>
    <contour>
      <point x="137.0" y="624.0" type="line"/>
      <point x="242.0" y="624.0" type="line"/>
      <point x="242.0" y="104.0" type="line" smooth="yes"/>
      <point x="242.0" y="44.0"/>
      <point x="193.0" y="0.0"/>
      <point x="136.0" y="0.0" type="curve" smooth="yes"/>
      <point x="0.0" y="0.0" type="line"/>
      <point x="0.0" y="105.0" type="line"/>
      <point x="156.0" y="105.0" type="line"/>
      <point x="149.35" y="97.65"/>
      <point x="143.65" y="91.35"/>
      <point x="137.0" y="84.0" type="curve"/>
    </contour>
    <component base="arTah.above" xOffset="190.0" yOffset="724.0" identifier="mark_arTah.above"/>
    <component base="ar3Dot.above" xOffset="190.0" yOffset="724.0" identifier="mark_ar3Dot.above"/>
    <component base="ar1Dot.above" xOffset="190.0" yOffset="724.0" identifier="mark_ar1Dot.above"/>
    <component base="uni0652" xOffset="190.0" yOffset="760.0" identifier="mark_uni0652"/>
    <component base="uni064F" xOffset="190.0" yOffset="758.0" identifier="mark_uni064F"/>
    <component base="uni064C" xOffset="190.0" yOffset="757.0" identifier="mark_uni064C"/>
    <component base="ar3IDot.below" xOffset="160.0" yOffset="-99.0" identifier="mark_ar3IDot.below"/>
    <component base="ar2Dot.below" xOffset="160.0" yOffset="-99.0" identifier="mark_ar2Dot.below"/>
    <component base="uni0656" xOffset="160.0" yOffset="-99.0" identifier="mark_uni0656"/>
    <component base="uni064D" xOffset="160.0" yOffset="-129.0" identifier="mark_uni064D"/>
    <component base="uni0650" xOffset="160.0" yOffset="-120.0" identifier="mark_uni0650"/>
    <component base="ar1Dot.below" xOffset="160.0" yOffset="-99.0" identifier="mark_ar1Dot.below"/>
    <component base="ar3Dot.below" xOffset="160.0" yOffset="-99.0" identifier="mark_ar3Dot.below"/>
    <component base="uni064B" xOffset="190.0" yOffset="762.0" identifier="mark_uni064B"/>
    <component base="uni064E" xOffset="190.0" yOffset="745.0" identifier="mark_uni064E"/>
    <component base="uni0651" xOffset="190.0" yOffset="762.0" identifier="mark_uni0651"/>
    <component base="uni0670" xOffset="190.0" yOffset="724.0" identifier="mark_uni0670"/>
    <component base="ar2Dot.above" xOffset="190.0" yOffset="724.0" identifier="mark_ar2Dot.above"/>
    <component base="ar3IDot.above" xOffset="190.0" yOffset="724.0" identifier="mark_ar3IDot.above"/>
  </outline>
</glyph>
<glyph name="arLam.isol" format="2">
  <advance width="573"/>
  <outline>
    <contour>
      <point x="418.0" y="624.0" type="line"/>
      <point x="523.0" y="624.0" type="line"/>
      <point x="523.0" y="-42.0" type="line" smooth="yes"/>
      <point x="523.0" y="-97.0"/>
      <point x="479.0" y="-148.0"/>
      <point x="417.0" y="-148.0" type="curve" smooth="yes"/>
      <point x="157.0" y="-148.0" type="line" smooth="yes"/>
      <point x="99.0" y="-148.0"/>
      <point x="50.0" y="-104.0"/>
      <point x="50.0" y="-43.0" type="curve" smooth="yes"/>
      <point x="50.0" y="146.0" type="line"/>
      <point x="155.0" y="146.0" type="line"/>
      <point x="155.0" y="-64.0" type="line"/>
      <point x="148.0" y="-57.0"/>
      <point x="142.0" y="-51.0"/>
      <point x="135.0" y="-44.0" type="curve"/>
      <point x="439.0" y="-44.0" type="line"/>
      <point x="431.65" y="-51.0"/>
      <point x="425.35" y="-57.0"/>
      <point x="418.0" y="-64.0" type="curve"/>
    </contour>
    <component base="arTah.above" xOffset="469.0" yOffset="674.0" identifier="mark_arTah.above"/>
    <component base="ar3Dot.above" xOffset="469.0" yOffset="674.0" identifier="mark_ar3Dot.above"/>
    <component base="ar1Dot.above" xOffset="469.0" yOffset="674.0" identifier="mark_ar1Dot.above"/>
    <component base="uni0652" xOffset="469.0" yOffset="710.0" identifier="mark_uni0652"/>
    <component base="uni064F" xOffset="469.0" yOffset="708.0" identifier="mark_uni064F"/>
    <component base="uni064C" xOffset="469.0" yOffset="707.0" identifier="mark_uni064C"/>
    <component base="ar3IDot.below" xOffset="272.0" yOffset="-258.0" identifier="mark_ar3IDot.below"/>
    <component base="ar2Dot.below" xOffset="272.0" yOffset="-258.0" identifier="mark_ar2Dot.below"/>
    <component base="uni0656" xOffset="272.0" yOffset="-258.0" identifier="mark_uni0656"/>
    <component base="uni064D" xOffset="272.0" yOffset="-288.0" identifier="mark_uni064D"/>
    <component base="uni0650" xOffset="272.0" yOffset="-279.0" identifier="mark_uni0650"/>
    <component base="ar1Dot.below" xOffset="272.0" yOffset="-258.0" identifier="mark_ar1Dot.below"/>
    <component base="ar3Dot.below" xOffset="272.0" yOffset="-258.0" identifier="mark_ar3Dot.below"/>
    <component base="uni064B" xOffset="469.0" yOffset="712.0" identifier="mark_uni064B"/>
    <component base="uni064E" xOffset="469.0" yOffset="695.0" identifier="mark_uni064E"/>
    <component base="uni0651" xOffset="469.0" yOffset="712.0" identifier="mark_uni0651"/>
    <component base="uni0670" xOffset="469.0" yOffset="674.0" identifier="mark_uni0670"/>
    <component base="ar2Dot.above" xOffset="469.0" yOffset="674.0" identifier="mark_ar2Dot.above"/>
    <component base="ar3IDot.above" xOffset="469.0" yOffset="674.0" identifier="mark_ar3IDot.above"/>
  </outline>
</glyph>
<glyph name="arMeem.init" format="2">
  <advance width="522"/>
  <outline>
    <contour>
      <point x="0.0" y="0.0" type="line"/>
      <point x="0.0" y="105.0" type="line"/>
      <point x="119.0" y="105.0" type="line"/>
      <point x="112.35" y="97.65"/>
      <point x="106.65" y="91.35"/>
      <point x="100.0" y="84.0" type="curve"/>
      <point x="100.0" y="238.0" type="line" smooth="yes"/>
      <point x="100.0" y="282.0"/>
      <point x="117.0" y="321.0"/>
      <point x="145.0" y="348.0" type="curve" smooth="yes"/>
      <point x="209.0" y="410.0"/>
      <point x="319.0" y="406.0"/>
      <point x="385.0" y="337.0" type="curve" smooth="yes"/>
      <point x="442.0" y="277.0"/>
      <point x="472.0" y="220.0"/>
      <point x="472.0" y="163.0" type="curve" smooth="yes"/>
      <point x="473.0" y="47.0"/>
      <point x="357.0" y="0.0"/>
      <point x="265.0" y="0.0" type="curve" smooth="yes"/>
      <point x="200.0" y="0.0" type="line"/>
      <point x="200.0" y="105.0" type="line"/>
      <point x="265.0" y="105.0" type="line" smooth="yes"/>
      <point x="339.0" y="105.0"/>
      <point x="367.0" y="137.0"/>
      <point x="367.0" y="162.0" type="curve" smooth="yes"/>
      <point x="367.0" y="180.0"/>
      <point x="356.0" y="216.0"/>
      <point x="309.0" y="265.0" type="curve" smooth="yes"/>
      <point x="281.0" y="294.0"/>
      <point x="237.0" y="291.0"/>
      <point x="218.0" y="273.0" type="curve" smooth="yes"/>
      <point x="211.0" y="266.0"/>
      <point x="205.0" y="256.0"/>
      <point x="205.0" y="238.0" type="curve" smooth="yes"/>
      <point x="205.0" y="104.0" type="line" smooth="yes"/>
      <point x="205.0" y="44.0"/>
      <point x="156.0" y="0.0"/>
      <point x="99.0" y="0.0" type="curve" smooth="yes"/>
    </contour>
    <component base="arTah.above" xOffset="252.0" yOffset="449.0" identifier="mark_arTah.above"/>
    <component base="ar3Dot.above" xOffset="252.0" yOffset="449.0" identifier="mark_ar3Dot.above"/>
    <component base="ar1Dot.above" xOffset="252.0" yOffset="449.0" identifier="mark_ar1Dot.above"/>
    <component base="uni0652" xOffset="252.0" yOffset="485.0" identifier="mark_uni0652"/>
    <component base="uni064F" xOffset="252.0" yOffset="483.0" identifier="mark_uni064F"/>
    <component base="uni064C" xOffset="252.0" yOffset="482.0" identifier="mark_uni064C"/>
    <component base="ar3IDot.below" xOffset="174.0" yOffset="-109.0" identifier="mark_ar3IDot.below"/>
    <component base="ar2Dot.below" xOffset="174.0" yOffset="-109.0" identifier="mark_ar2Dot.below"/>
    <component base="uni0656" xOffset="174.0" yOffset="-109.0" identifier="mark_uni0656"/>
    <component base="uni064D" xOffset="174.0" yOffset="-139.0" identifier="mark_uni064D"/>
    <component base="uni0650" xOffset="174.0" yOffset="-130.0" identifier="mark_uni0650"/>
    <component base="ar1Dot.below" xOffset="174.0" yOffset="-109.0" identifier="mark_ar1Dot.below"/>
    <component base="ar3Dot.below" xOffset="174.0" yOffset="-109.0" identifier="mark_ar3Dot.below"/>
    <component base="uni064B" xOffset="252.0" yOffset="487.0" identifier="mark_uni064B"/>
    <component base="uni064E" xOffset="252.0" yOffset="470.0" identifier="mark_uni064E"/>
    <component base="uni0651" xOffset="252.0" yOffset="487.0" identifier="mark_uni0651"/>
    <component base="uni0670" xOffset="252.0" yOffset="449.0" identifier="mark_uni0670"/>
    <component base="ar2Dot.above" xOffset="252.0" yOffset="449.0" identifier="mark_ar2Dot.above"/>
    <component base="ar3IDot.above" xOffset="252.0" yOffset="449.0" identifier="mark_ar3IDot.above"/>
  </outline>
</glyph>
<glyph name="arMeem.isol" format="2">
  <advance width="674"/>
  <anchor x="404.0" y="449.0" name="dotAbove"/>
  <anchor x="404.0" y="485.0" name="markAbove"/>
  <anchor x="326.0" y="-109.0" name="dotBelow"/>
  <anchor x="326.0" y="-139.0" name="markBelow"/>
  <outline>
    <contour>
      <point x="152.0" y="105.0" type="line"/>
      <point x="239.0" y="0.0" type="line"/>
      <point x="137.0" y="0.0" type="line"/>
      <point x="50.0" y="105.0" type="line"/>
    </contour>
    <component base="arMeem.init" xOffset="152.0"/>
  </outline>
</glyph>
<glyph name="arNoon.fina" format="2">
  <advance width="620"/>
  <anchor x="293.0" y="-297.0" name="dotBelow"/>
  <anchor x="293.0" y="-327.0" name="markBelow"/>
  <anchor x="293.0" y="302.0" name="dotAbove"/>
  <anchor x="293.0" y="340.0" name="markAbove"/>
  <anchor x="293.0" y="-188" name="ringBelow"/>
  <outline>
    <contour>
      <point x="640.0" y="105.0" type="line"/>
      <point x="640.0" y="0.0" type="line"/>
      <point x="499.0" y="0.0" type="line"/>
      <point x="499.0" y="105.0" type="line"/>
    </contour>
    <component base="arNoon.isol"/>
  </outline>
</glyph>
<glyph name="arNoon.isol" format="2">
  <advance width="569"/>
  <anchor x="293.0" y="-297.0" name="dotBelow"/>
  <anchor x="293.0" y="-327.0" name="markBelow"/>
  <anchor x="293.0" y="302.0" name="dotAbove"/>
  <anchor x="293.0" y="340.0" name="markAbove"/>
  <outline>
    <contour>
      <point x="414.0" y="188.0" type="line"/>
      <point x="519.0" y="188.0" type="line"/>
      <point x="519.0" y="-83.0" type="line" smooth="yes"/>
      <point x="519.0" y="-140.0"/>
      <point x="475.0" y="-188.0"/>
      <point x="415.0" y="-188.0" type="curve" smooth="yes"/>
      <point x="277.0" y="-188.0" type="line" smooth="yes"/>
      <point x="149.0" y="-188.0"/>
      <point x="50.0" y="-118.0"/>
      <point x="50.0" y="-3.0" type="curve" smooth="yes"/>
      <point x="50.0" y="187.0" type="line"/>
      <point x="155.0" y="187.0" type="line"/>
      <point x="155.0" y="-3.0" type="line" smooth="yes"/>
      <point x="155.0" y="-28.0"/>
      <point x="182.0" y="-82.0"/>
      <point x="277.0" y="-82.0" type="curve" smooth="yes"/>
      <point x="434.0" y="-82.0" type="line"/>
      <point x="427.0" y="-89.0"/>
      <point x="421.0" y="-95.0"/>
      <point x="414.0" y="-102.0" type="curve"/>
    </contour>
  </outline>
</glyph>
<glyph name="arQaf.fina" format="2">
  <advance width="805"/>
  <outline>
    <contour>
      <point x="825.0" y="105.0" type="line"/>
      <point x="825.0" y="0.0" type="line"/>
      <point x="626.0" y="0.0" type="line" smooth="yes"/>
      <point x="542.0" y="0.0"/>
      <point x="438.0" y="-14.0"/>
      <point x="375.0" y="90.0" type="curve" smooth="yes"/>
      <point x="317.0" y="186.0"/>
      <point x="367.0" y="297.0"/>
      <point x="436.0" y="342.0" type="curve" smooth="yes"/>
      <point x="513.0" y="391.0"/>
      <point x="643.0" y="386.0"/>
      <point x="704.0" y="290.0" type="curve" smooth="yes"/>
      <point x="721.0" y="262.0"/>
      <point x="730.0" y="228.0"/>
      <point x="730.0" y="191.0" type="curve" smooth="yes"/>
      <point x="730.0" y="-93.0" type="line" smooth="yes"/>
      <point x="730.0" y="-148.0"/>
      <point x="686.0" y="-200.0"/>
      <point x="623.0" y="-200.0" type="curve" smooth="yes"/>
      <point x="201.0" y="-200.0" type="line" smooth="yes"/>
      <point x="120.0" y="-200.0"/>
      <point x="50.0" y="-142.0"/>
      <point x="50.0" y="-53.0" type="curve" smooth="yes"/>
      <point x="50.0" y="189.0" type="line"/>
      <point x="154.0" y="189.0" type="line"/>
      <point x="154.0" y="-53.0" type="line" smooth="yes"/>
      <point x="154.0" y="-80.0"/>
      <point x="168.0" y="-94.0"/>
      <point x="201.0" y="-94.0" type="curve" smooth="yes"/>
      <point x="645.0" y="-94.0" type="line"/>
      <point x="638.35" y="-101.0"/>
      <point x="632.65" y="-107.0"/>
      <point x="626.0" y="-114.0" type="curve"/>
      <point x="626.0" y="191.0" type="line" smooth="yes"/>
      <point x="626.0" y="221.0"/>
      <point x="610.0" y="243.0"/>
      <point x="587.0" y="256.0" type="curve" smooth="yes"/>
      <point x="559.0" y="272.0"/>
      <point x="521.0" y="272.0"/>
      <point x="492.0" y="254.0" type="curve" smooth="yes"/>
      <point x="463.0" y="235.0"/>
      <point x="443.0" y="180.0"/>
      <point x="465.0" y="144.0" type="curve" smooth="yes"/>
      <point x="492.0" y="99.0"/>
      <point x="521.0" y="105.0"/>
      <point x="626.0" y="105.0" type="curve" smooth="yes"/>
    </contour>
    <component base="arTah.above" xOffset="534.0" yOffset="479.0" identifier="mark_arTah.above"/>
    <component base="ar3Dot.above" xOffset="534.0" yOffset="479.0" identifier="mark_ar3Dot.above"/>
    <component base="ar1Dot.above" xOffset="534.0" yOffset="479.0" identifier="mark_ar1Dot.above"/>
    <component base="uni0652" xOffset="534.0" yOffset="515.0" identifier="mark_uni0652"/>
    <component base="uni064F" xOffset="534.0" yOffset="513.0" identifier="mark_uni064F"/>
    <component base="uni064C" xOffset="534.0" yOffset="512.0" identifier="mark_uni064C"/>
    <component base="ar3IDot.below" xOffset="414.0" yOffset="-299.0" identifier="mark_ar3IDot.below"/>
    <component base="ar2Dot.below" xOffset="414.0" yOffset="-299.0" identifier="mark_ar2Dot.below"/>
    <component base="uni0656" xOffset="414.0" yOffset="-299.0" identifier="mark_uni0656"/>
    <component base="uni064D" xOffset="414.0" yOffset="-329.0" identifier="mark_uni064D"/>
    <component base="uni0650" xOffset="414.0" yOffset="-320.0" identifier="mark_uni0650"/>
    <component base="ar1Dot.below" xOffset="414.0" yOffset="-299.0" identifier="mark_ar1Dot.below"/>
    <component base="ar3Dot.below" xOffset="414.0" yOffset="-299.0" identifier="mark_ar3Dot.below"/>
    <component base="uni064B" xOffset="534.0" yOffset="517.0" identifier="mark_uni064B"/>
    <component base="uni064E" xOffset="534.0" yOffset="500.0" identifier="mark_uni064E"/>
    <component base="uni0651" xOffset="534.0" yOffset="517.0" identifier="mark_uni0651"/>
    <component base="uni0670" xOffset="534.0" yOffset="479.0" identifier="mark_uni0670"/>
    <component base="ar2Dot.above" xOffset="534.0" yOffset="479.0" identifier="mark_ar2Dot.above"/>
    <component base="ar3IDot.above" xOffset="534.0" yOffset="479.0" identifier="mark_ar3IDot.above"/>
  </outline>
</glyph>
<glyph name="arQaf.isol" format="2">
  <advance width="781"/>
  <outline>
    <contour>
      <point x="679.0" y="20.0" type="line"/>
      <point x="571.0" y="16.0"/>
      <point x="439.0" y="-14.0"/>
      <point x="376.0" y="90.0" type="curve" smooth="yes"/>
      <point x="318.0" y="186.0"/>
      <point x="367.0" y="297.0"/>
      <point x="436.0" y="342.0" type="curve" smooth="yes"/>
      <point x="513.0" y="391.0"/>
      <point x="643.0" y="386.0"/>
      <point x="704.0" y="290.0" type="curve" smooth="yes"/>
      <point x="721.0" y="262.0"/>
      <point x="731.0" y="228.0"/>
      <point x="731.0" y="191.0" type="curve" smooth="yes"/>
      <point x="731.0" y="-93.0" type="line" smooth="yes"/>
      <point x="731.0" y="-148.0"/>
      <point x="686.0" y="-200.0"/>
      <point x="623.0" y="-200.0" type="curve" smooth="yes"/>
      <point x="201.0" y="-200.0" type="line" smooth="yes"/>
      <point x="120.0" y="-200.0"/>
      <point x="50.0" y="-142.0"/>
      <point x="50.0" y="-53.0" type="curve" smooth="yes"/>
      <point x="50.0" y="189.0" type="line"/>
      <point x="155.0" y="189.0" type="line"/>
      <point x="155.0" y="-53.0" type="line" smooth="yes"/>
      <point x="155.0" y="-80.0"/>
      <point x="168.0" y="-94.0"/>
      <point x="201.0" y="-94.0" type="curve" smooth="yes"/>
      <point x="645.0" y="-94.0" type="line"/>
      <point x="638.35" y="-101.0"/>
      <point x="632.65" y="-107.0"/>
      <point x="626.0" y="-114.0" type="curve"/>
      <point x="626.0" y="191.0" type="line" smooth="yes"/>
      <point x="626.0" y="228.0"/>
      <point x="600.0" y="256.0"/>
      <point x="567.0" y="265.0" type="curve" smooth="yes"/>
      <point x="544.0" y="271.0"/>
      <point x="517.0" y="269.0"/>
      <point x="493.0" y="254.0" type="curve" smooth="yes"/>
      <point x="464.0" y="235.0"/>
      <point x="443.0" y="180.0"/>
      <point x="465.0" y="144.0" type="curve" smooth="yes"/>
      <point x="492.0" y="99.0"/>
      <point x="514.0" y="88.0"/>
      <point x="679.0" y="96.0" type="curve"/>
    </contour>
    <component base="arTah.above" xOffset="534.0" yOffset="479.0" identifier="mark_arTah.above"/>
    <component base="ar3Dot.above" xOffset="534.0" yOffset="479.0" identifier="mark_ar3Dot.above"/>
    <component base="ar1Dot.above" xOffset="534.0" yOffset="479.0" identifier="mark_ar1Dot.above"/>
    <component base="uni0652" xOffset="534.0" yOffset="515.0" identifier="mark_uni0652"/>
    <component base="uni064F" xOffset="534.0" yOffset="513.0" identifier="mark_uni064F"/>
    <component base="uni064C" xOffset="534.0" yOffset="512.0" identifier="mark_uni064C"/>
    <component base="ar3IDot.below" xOffset="414.0" yOffset="-299.0" identifier="mark_ar3IDot.below"/>
    <component base="ar2Dot.below" xOffset="414.0" yOffset="-299.0" identifier="mark_ar2Dot.below"/>
    <component base="uni0656" xOffset="414.0" yOffset="-299.0" identifier="mark_uni0656"/>
    <component base="uni064D" xOffset="414.0" yOffset="-329.0" identifier="mark_uni064D"/>
    <component base="uni0650" xOffset="414.0" yOffset="-320.0" identifier="mark_uni0650"/>
    <component base="ar1Dot.below" xOffset="414.0" yOffset="-299.0" identifier="mark_ar1Dot.below"/>
    <component base="ar3Dot.below" xOffset="414.0" yOffset="-299.0" identifier="mark_ar3Dot.below"/>
    <component base="uni064B" xOffset="534.0" yOffset="517.0" identifier="mark_uni064B"/>
    <component base="uni064E" xOffset="534.0" yOffset="500.0" identifier="mark_uni064E"/>
    <component base="uni0651" xOffset="534.0" yOffset="517.0" identifier="mark_uni0651"/>
    <component base="uni0670" xOffset="534.0" yOffset="479.0" identifier="mark_uni0670"/>
    <component base="ar2Dot.above" xOffset="534.0" yOffset="479.0" identifier="mark_ar2Dot.above"/>
    <component base="ar3IDot.above" xOffset="534.0" yOffset="479.0" identifier="mark_ar3IDot.above"/>
  </outline>
</glyph>
<glyph name="arReh.isol" format="2">
  <advance width="344"/>
  <outline>
    <contour>
      <point x="188.0" y="187.0" type="line"/>
      <point x="294.0" y="187.0" type="line"/>
      <point x="294.0" y="-1.0" type="line" smooth="yes"/>
      <point x="294.0" y="-108.0"/>
      <point x="214.0" y="-200.0"/>
      <point x="102.0" y="-200.0" type="curve" smooth="yes"/>
      <point x="0.0" y="-200.0" type="line"/>
      <point x="0.0" y="-96.0" type="line"/>
      <point x="102.0" y="-96.0" type="line" smooth="yes"/>
      <point x="152.0" y="-96.0"/>
      <point x="188.0" y="-58.0"/>
      <point x="188.0" y="-1.0" type="curve" smooth="yes"/>
    </contour>
    <component base="arTah.above" xOffset="236.0" yOffset="351.0" identifier="mark_arTah.above"/>
    <component base="ar3Dot.above" xOffset="236.0" yOffset="351.0" identifier="mark_ar3Dot.above"/>
    <component base="ar1Dot.above" xOffset="236.0" yOffset="351.0" identifier="mark_ar1Dot.above"/>
    <component base="uni0652" xOffset="236.0" yOffset="387.0" identifier="mark_uni0652"/>
    <component base="uni064F" xOffset="236.0" yOffset="385.0" identifier="mark_uni064F"/>
    <component base="uni064C" xOffset="236.0" yOffset="384.0" identifier="mark_uni064C"/>
    <component base="ar3IDot.below" xOffset="138.0" yOffset="-330.0" identifier="mark_ar3IDot.below"/>
    <component base="ar2Dot.below" xOffset="138.0" yOffset="-330.0" identifier="mark_ar2Dot.below"/>
    <component base="uni0656" xOffset="138.0" yOffset="-330.0" identifier="mark_uni0656"/>
    <component base="uni064D" xOffset="138.0" yOffset="-360.0" identifier="mark_uni064D"/>
    <component base="uni0650" xOffset="138.0" yOffset="-351.0" identifier="mark_uni0650"/>
    <component base="ar1Dot.below" xOffset="138.0" yOffset="-330.0" identifier="mark_ar1Dot.below"/>
    <component base="ar3Dot.below" xOffset="138.0" yOffset="-330.0" identifier="mark_ar3Dot.below"/>
    <component base="uni064B" xOffset="236.0" yOffset="389.0" identifier="mark_uni064B"/>
    <component base="uni064E" xOffset="236.0" yOffset="372.0" identifier="mark_uni064E"/>
    <component base="uni0651" xOffset="236.0" yOffset="389.0" identifier="mark_uni0651"/>
    <component base="uni0670" xOffset="236.0" yOffset="351.0" identifier="mark_uni0670"/>
    <component base="ar2Dot.above" xOffset="236.0" yOffset="351.0" identifier="mark_ar2Dot.above"/>
    <component base="ar3IDot.above" xOffset="236.0" yOffset="351.0" identifier="mark_ar3IDot.above"/>
  </outline>
</glyph>
<glyph name="arSad.above" format="2">
  <outline>
    <contour>
      <point x="-81.0" y="-0.0" type="line"/>
      <point x="-149.0" y="-0.0" type="line"/>
      <point x="-149.0" y="52.0" type="line"/>
      <point x="-81.0" y="52.0" type="line"/>
    </contour>
    <contour>
      <point x="-100.0" y="47.0" type="line"/>
      <point x="-54.0" y="111.0"/>
      <point x="8.0" y="216.0"/>
      <point x="94.0" y="184.0" type="curve" smooth="yes"/>
      <point x="132.0" y="168.0"/>
      <point x="148.0" y="132.0"/>
      <point x="149.0" y="86.0" type="curve" smooth="yes"/>
      <point x="150.0" y="53.0" type="line" smooth="yes"/>
      <point x="151.0" y="23.0"/>
      <point x="126.0" y="0.0"/>
      <point x="97.0" y="0.0" type="curve" smooth="yes"/>
      <point x="-104.0" y="-0.0" type="line"/>
      <point x="-104.0" y="52.0" type="line"/>
      <point x="108.0" y="52.0" type="line"/>
      <point x="103.8" y="48.5"/>
      <point x="100.2" y="45.5"/>
      <point x="96.0" y="42.0" type="curve"/>
      <point x="96.0" y="85.0" type="line" smooth="yes"/>
      <point x="96.0" y="121.0"/>
      <point x="86.0" y="129.0"/>
      <point x="74.0" y="135.0" type="curve" smooth="yes"/>
      <point x="48.0" y="144.0"/>
      <point x="12.0" y="118.0"/>
      <point x="-52.0" y="22.0" type="curve"/>
    </contour>
    <component base="uni0670" yOffset="240.0" identifier="mark_uni0670"/>
    <component base="uni0651" yOffset="278.0" identifier="mark_uni0651"/>
    <component base="uni064E" yOffset="261.0" identifier="mark_uni064E"/>
    <component base="uni064B" yOffset="278.0" identifier="mark_uni064B"/>
    <component base="uni064C" yOffset="273.0" identifier="mark_uni064C"/>
    <component base="uni064F" yOffset="274.0" identifier="mark_uni064F"/>
    <component base="uni0652" yOffset="276.0" identifier="mark_uni0652"/>
  </outline>
</glyph>
<glyph name="arSad.head" format="2">
  <outline>
    <contour>
      <point x="-245.0" y="94.0" type="line"/>
      <point x="-152.0" y="223.0"/>
      <point x="-30.0" y="432.0"/>
      <point x="142.0" y="368.0" type="curve" smooth="yes"/>
      <point x="218.0" y="336.0"/>
      <point x="250.0" y="263.0"/>
      <point x="252.0" y="172.0" type="curve" smooth="yes"/>
      <point x="254.0" y="106.0" type="line" smooth="yes"/>
      <point x="256.0" y="46.0"/>
      <point x="206.0" y="0.0"/>
      <point x="148.0" y="-0.0" type="curve" smooth="yes"/>
      <point x="-254.0" y="-0.0" type="line"/>
      <point x="-254.0" y="105.0" type="line"/>
      <point x="169.0" y="105.0" type="line"/>
      <point x="161.3" y="97.65"/>
      <point x="154.7" y="91.35"/>
      <point x="147.0" y="84.0" type="curve"/>
      <point x="147.0" y="170.0" type="line" smooth="yes"/>
      <point x="147.0" y="242.0"/>
      <point x="128.0" y="259.0"/>
      <point x="103.0" y="270.0" type="curve" smooth="yes"/>
      <point x="52.0" y="288.0"/>
      <point x="-22.0" y="237.0"/>
      <point x="-149.0" y="44.0" type="curve"/>
    </contour>
    <component base="arTah.above" yOffset="507.0" identifier="mark_arTah.above"/>
    <component base="ar3Dot.above" yOffset="507.0" identifier="mark_ar3Dot.above"/>
    <component base="ar1Dot.above" yOffset="507.0" identifier="mark_ar1Dot.above"/>
    <component base="uni0652" yOffset="543.0" identifier="mark_uni0652"/>
    <component base="uni064F" yOffset="541.0" identifier="mark_uni064F"/>
    <component base="uni064C" yOffset="540.0" identifier="mark_uni064C"/>
    <component base="ar3IDot.below" yOffset="-200.0" identifier="mark_ar3IDot.below"/>
    <component base="ar2Dot.below" yOffset="-200.0" identifier="mark_ar2Dot.below"/>
    <component base="uni0656" yOffset="-200.0" identifier="mark_uni0656"/>
    <component base="uni064D" yOffset="-230.0" identifier="mark_uni064D"/>
    <component base="uni0650" yOffset="-221.0" identifier="mark_uni0650"/>
    <component base="ar1Dot.below" yOffset="-200.0" identifier="mark_ar1Dot.below"/>
    <component base="ar3Dot.below" yOffset="-200.0" identifier="mark_ar3Dot.below"/>
    <component base="uni064B" yOffset="545.0" identifier="mark_uni064B"/>
    <component base="uni064E" yOffset="528.0" identifier="mark_uni064E"/>
    <component base="uni0651" yOffset="545.0" identifier="mark_uni0651"/>
    <component base="uni0670" yOffset="507.0" identifier="mark_uni0670"/>
    <component base="ar2Dot.above" yOffset="507.0" identifier="mark_ar2Dot.above"/>
    <component base="ar3IDot.above" yOffset="507.0" identifier="mark_ar3IDot.above"/>
  </outline>
</glyph>
<glyph name="arSad.init" format="2">
  <advance width="731.0580091167612"/>
  <anchor x="399.0" y="-149.0" name="dotBelow"/>
  <anchor x="399.0" y="-179.0" name="markBelow"/>
  <anchor x="311.0" y="427.0" name="dotAbove"/>
  <anchor x="311.0" y="465.0" name="markAbove"/>
  <outline>
    <contour>
      <point x="0.0" y="0.0" type="line"/>
      <point x="0.0" y="105.0" type="line"/>
      <point x="184.0" y="105.0" type="line"/>
      <point x="184.0" y="0.0" type="line"/>
    </contour>
    <contour>
      <point x="86.0" y="277.0" type="line"/>
      <point x="190.0" y="277.0" type="line"/>
      <point x="190.0" y="98.0" type="line"/>
      <point x="86.0" y="98.0" type="line"/>
    </contour>
    <component base="arSad.head" xOffset="427.0"/>
  </outline>
</glyph>
<glyph name="arSad.isol" format="2">
  <advance width="1030"/>
  <outline>
    <contour>
      <point x="419.0" y="277.0" type="line"/>
      <point x="524.0" y="277.0" type="line"/>
      <point x="524.0" y="-97.0" type="line" smooth="yes"/>
      <point x="524.0" y="-156.0"/>
      <point x="477.0" y="-202.0"/>
      <point x="419.0" y="-202.0" type="curve" smooth="yes"/>
      <point x="152.0" y="-202.0" type="line" smooth="yes"/>
      <point x="90.0" y="-202.0"/>
      <point x="50.0" y="-146.0"/>
      <point x="50.0" y="-93.0" type="curve" smooth="yes"/>
      <point x="50.0" y="185.0" type="line"/>
      <point x="155.0" y="185.0" type="line"/>
      <point x="155.0" y="-116.0" type="line"/>
      <point x="148.0" y="-109.35"/>
      <point x="142.0" y="-103.65"/>
      <point x="135.0" y="-97.0" type="curve"/>
      <point x="439.0" y="-97.0" type="line"/>
      <point x="432.0" y="-103.65"/>
      <point x="426.0" y="-109.35"/>
      <point x="419.0" y="-116.0" type="curve"/>
    </contour>
    <component base="arSad.head" xOffset="726.0"/>
    <component base="arTah.above" xOffset="608.0" yOffset="447.0" identifier="mark_arTah.above"/>
    <component base="ar3Dot.above" xOffset="608.0" yOffset="447.0" identifier="mark_ar3Dot.above"/>
    <component base="ar1Dot.above" xOffset="608.0" yOffset="447.0" identifier="mark_ar1Dot.above"/>
    <component base="uni0652" xOffset="608.0" yOffset="483.0" identifier="mark_uni0652"/>
    <component base="uni064F" xOffset="608.0" yOffset="481.0" identifier="mark_uni064F"/>
    <component base="uni064C" xOffset="608.0" yOffset="480.0" identifier="mark_uni064C"/>
    <component base="ar3IDot.below" xOffset="274.0" yOffset="-311.0" identifier="mark_ar3IDot.below"/>
    <component base="ar2Dot.below" xOffset="274.0" yOffset="-311.0" identifier="mark_ar2Dot.below"/>
    <component base="uni0656" xOffset="274.0" yOffset="-311.0" identifier="mark_uni0656"/>
    <component base="uni064D" xOffset="274.0" yOffset="-341.0" identifier="mark_uni064D"/>
    <component base="uni0650" xOffset="274.0" yOffset="-332.0" identifier="mark_uni0650"/>
    <component base="ar1Dot.below" xOffset="274.0" yOffset="-311.0" identifier="mark_ar1Dot.below"/>
    <component base="ar3Dot.below" xOffset="274.0" yOffset="-311.0" identifier="mark_ar3Dot.below"/>
    <component base="uni064B" xOffset="608.0" yOffset="485.0" identifier="mark_uni064B"/>
    <component base="uni064E" xOffset="608.0" yOffset="468.0" identifier="mark_uni064E"/>
    <component base="uni0651" xOffset="608.0" yOffset="485.0" identifier="mark_uni0651"/>
    <component base="uni0670" xOffset="608.0" yOffset="447.0" identifier="mark_uni0670"/>
    <component base="ar2Dot.above" xOffset="608.0" yOffset="447.0" identifier="mark_ar2Dot.above"/>
    <component base="ar3IDot.above" xOffset="608.0" yOffset="447.0" identifier="mark_ar3IDot.above"/>
  </outline>
</glyph>
<glyph name="arSeen.init" format="2">
  <advance width="699"/>
  <outline>
    <contour>
      <point x="180.0" y="376.0" type="line"/>
      <point x="285.0" y="376.0" type="line"/>
      <point x="285.0" y="104.0" type="line" smooth="yes"/>
      <point x="285.0" y="44.0"/>
      <point x="236.0" y="0.0"/>
      <point x="179.0" y="0.0" type="curve" smooth="yes"/>
      <point x="0.0" y="0.0" type="line"/>
      <point x="0.0" y="105.0" type="line"/>
      <point x="199.0" y="105.0" type="line" smooth="yes"/>
      <point x="200.0" y="105.0"/>
      <point x="180.0" y="84.0"/>
      <point x="180.0" y="84.0" type="curve"/>
    </contour>
    <contour>
      <point x="362.0" y="376.0" type="line"/>
      <point x="467.0" y="376.0" type="line"/>
      <point x="467.0" y="104.0" type="line" smooth="yes"/>
      <point x="467.0" y="44.0"/>
      <point x="418.0" y="0.0"/>
      <point x="361.0" y="0.0" type="curve" smooth="yes"/>
      <point x="279.0" y="0.0" type="line"/>
      <point x="279.0" y="105.0" type="line"/>
      <point x="381.0" y="105.0" type="line" smooth="yes"/>
      <point x="382.0" y="105.0"/>
      <point x="362.0" y="84.0"/>
      <point x="362.0" y="84.0" type="curve"/>
    </contour>
    <contour>
      <point x="544.0" y="376.0" type="line"/>
      <point x="649.0" y="376.0" type="line"/>
      <point x="649.0" y="104.0" type="line" smooth="yes"/>
      <point x="649.0" y="44.0"/>
      <point x="600.0" y="0.0"/>
      <point x="543.0" y="0.0" type="curve" smooth="yes"/>
      <point x="461.0" y="0.0" type="line"/>
      <point x="461.0" y="105.0" type="line"/>
      <point x="563.0" y="105.0" type="line" smooth="yes"/>
      <point x="564.0" y="105.0"/>
      <point x="544.0" y="84.0"/>
      <point x="544.0" y="84.0" type="curve"/>
    </contour>
  </outline>
</glyph>
<glyph name="arSeen.isol" format="2">
  <advance width="942"/>
  <outline>
    <contour>
      <point x="419.0" y="378.0" type="line"/>
      <point x="524.0" y="378.0" type="line"/>
      <point x="524.0" y="-97.0" type="line" smooth="yes"/>
      <point x="524.0" y="-156.0"/>
      <point x="477.0" y="-202.0"/>
      <point x="419.0" y="-202.0" type="curve" smooth="yes"/>
      <point x="152.0" y="-202.0" type="line" smooth="yes"/>
      <point x="90.0" y="-202.0"/>
      <point x="50.0" y="-146.0"/>
      <point x="50.0" y="-93.0" type="curve" smooth="yes"/>
      <point x="50.0" y="185.0" type="line"/>
      <point x="155.0" y="185.0" type="line"/>
      <point x="155.0" y="-116.0" type="line"/>
      <point x="148.0" y="-109.35"/>
      <point x="142.0" y="-103.65"/>
      <point x="135.0" y="-97.0" type="curve"/>
      <point x="439.0" y="-97.0" type="line"/>
      <point x="432.0" y="-103.65"/>
      <point x="426.0" y="-109.35"/>
      <point x="419.0" y="-116.0" type="curve"/>
    </contour>
    <contour>
      <point x="603.0" y="376.0" type="line"/>
      <point x="708.0" y="376.0" type="line"/>
      <point x="708.0" y="104.0" type="line" smooth="yes"/>
      <point x="708.0" y="44.0"/>
      <point x="659.0" y="0.0"/>
      <point x="602.0" y="0.0" type="curve" smooth="yes"/>
      <point x="520.0" y="0.0" type="line"/>
      <point x="520.0" y="105.0" type="line"/>
      <point x="622.0" y="105.0" type="line" smooth="yes"/>
      <point x="623.0" y="105.0"/>
      <point x="603.0" y="84.0"/>
      <point x="603.0" y="84.0" type="curve"/>
    </contour>
    <contour>
      <point x="787.0" y="376.0" type="line"/>
      <point x="892.0" y="376.0" type="line"/>
      <point x="892.0" y="104.0" type="line" smooth="yes"/>
      <point x="892.0" y="44.0"/>
      <point x="843.0" y="0.0"/>
      <point x="786.0" y="0.0" type="curve" smooth="yes"/>
      <point x="704.0" y="0.0" type="line"/>
      <point x="704.0" y="105.0" type="line"/>
      <point x="806.0" y="105.0" type="line" smooth="yes"/>
      <point x="807.0" y="105.0"/>
      <point x="787.0" y="84.0"/>
      <point x="787.0" y="84.0" type="curve"/>
    </contour>
    <component base="arTah.above" xOffset="643.0" yOffset="512.0" identifier="mark_arTah.above"/>
    <component base="ar3Dot.above" xOffset="643.0" yOffset="512.0" identifier="mark_ar3Dot.above"/>
    <component base="ar1Dot.above" xOffset="643.0" yOffset="512.0" identifier="mark_ar1Dot.above"/>
    <component base="uni0652" xOffset="643.0" yOffset="548.0" identifier="mark_uni0652"/>
    <component base="uni064F" xOffset="643.0" yOffset="546.0" identifier="mark_uni064F"/>
    <component base="uni064C" xOffset="643.0" yOffset="545.0" identifier="mark_uni064C"/>
    <component base="ar3IDot.below" xOffset="274.0" yOffset="-311.0" identifier="mark_ar3IDot.below"/>
    <component base="ar2Dot.below" xOffset="274.0" yOffset="-311.0" identifier="mark_ar2Dot.below"/>
    <component base="uni0656" xOffset="274.0" yOffset="-311.0" identifier="mark_uni0656"/>
    <component base="uni064D" xOffset="274.0" yOffset="-341.0" identifier="mark_uni064D"/>
    <component base="uni0650" xOffset="274.0" yOffset="-332.0" identifier="mark_uni0650"/>
    <component base="ar1Dot.below" xOffset="274.0" yOffset="-311.0" identifier="mark_ar1Dot.below"/>
    <component base="ar3Dot.below" xOffset="274.0" yOffset="-311.0" identifier="mark_ar3Dot.below"/>
    <component base="uni064B" xOffset="643.0" yOffset="550.0" identifier="mark_uni064B"/>
    <component base="uni064E" xOffset="643.0" yOffset="533.0" identifier="mark_uni064E"/>
    <component base="uni0651" xOffset="643.0" yOffset="550.0" identifier="mark_uni0651"/>
    <component base="uni0670" xOffset="643.0" yOffset="512.0" identifier="mark_uni0670"/>
    <component base="ar2Dot.above" xOffset="643.0" yOffset="512.0" identifier="mark_ar2Dot.above"/>
    <component base="ar3IDot.above" xOffset="643.0" yOffset="512.0" identifier="mark_ar3IDot.above"/>
  </outline>
</glyph>
<glyph name="arSwashKaf.init" format="2">
  <advance width="884.2973627175763"/>
  <anchor x="409.0" y="-170.0" name="markBelow"/>
  <anchor x="153.86983154670753" y="533.3950995405819" name="markAbove"/>
  <outline>
    <contour>
      <point x="0.0" y="0.0" type="line"/>
      <point x="0.0" y="105.0" type="line"/>
      <point x="748.0" y="105.0" type="line"/>
      <point x="744.0" y="100.0"/>
      <point x="740.0" y="97.0"/>
      <point x="736.0" y="92.0" type="curve"/>
      <point x="705.0" y="149.0"/>
      <point x="678.0" y="201.0"/>
      <point x="584.0" y="201.0" type="curve" smooth="yes"/>
      <point x="145.0" y="201.0" type="line" smooth="yes"/>
      <point x="34.0" y="201.0"/>
      <point x="59.0" y="332.0"/>
      <point x="103.0" y="378.0" type="curve" smooth="yes"/>
      <point x="192.0" y="471.0"/>
      <point x="337.0" y="537.0"/>
      <point x="453.0" y="556.0" type="curve"/>
      <point x="473.0" y="452.0" type="line"/>
      <point x="383.0" y="435.0"/>
      <point x="245.0" y="382.0"/>
      <point x="168.0" y="294.0" type="curve"/>
      <point x="165.0" y="298.0"/>
      <point x="163.0" y="302.0"/>
      <point x="160.0" y="306.0" type="curve"/>
      <point x="584.0" y="306.0" type="line" smooth="yes"/>
      <point x="746.0" y="306.0"/>
      <point x="805.0" y="181.0"/>
      <point x="817.0" y="163.0" type="curve" smooth="yes"/>
      <point x="851.0" y="113.0"/>
      <point x="837.0" y="0.0"/>
      <point x="730.0" y="0.0" type="curve" smooth="yes"/>
    </contour>
  </outline>
</glyph>
<glyph name="arSwashKaf.isol" format="2">
  <advance width="1021.2973627175763"/>
  <anchor x="546.0" y="-170.0" name="markBelow"/>
  <anchor x="290.86983154670753" y="533.3950995405819" name="markAbove"/>
  <outline>
    <contour>
      <point x="152.0" y="105.0" type="line"/>
      <point x="239.0" y="0.0" type="line"/>
      <point x="137.0" y="0.0" type="line"/>
      <point x="50.0" y="105.0" type="line"/>
    </contour>
    <component base="arSwashKaf.init" xOffset="137.0"/>
  </outline>
</glyph>
<glyph name="arTah.above" format="2">
  <outline>
    <contour>
      <point x="-142.0" y="0.0" type="line"/>
      <point x="-142.0" y="52.0" type="line"/>
      <point x="-108.0" y="52.0" type="line"/>
      <point x="-108.0" y="0.0" type="line"/>
    </contour>
    <contour>
      <point x="-107.0" y="47.0" type="line"/>
      <point x="-61.0" y="111.0"/>
      <point x="0.0" y="216.0"/>
      <point x="86.0" y="184.0" type="curve" smooth="yes"/>
      <point x="124.0" y="168.0"/>
      <point x="141.0" y="132.0"/>
      <point x="142.0" y="86.0" type="curve" smooth="yes"/>
      <point x="142.0" y="53.0" type="line" smooth="yes"/>
      <point x="143.0" y="23.0"/>
      <point x="119.0" y="0.0"/>
      <point x="90.0" y="0.0" type="curve" smooth="yes"/>
      <point x="-112.0" y="0.0" type="line"/>
      <point x="-112.0" y="52.0" type="line"/>
      <point x="100.0" y="52.0" type="line"/>
      <point x="96.15" y="48.5"/>
      <point x="92.85" y="45.5"/>
      <point x="89.0" y="42.0" type="curve"/>
      <point x="89.0" y="85.0" type="line" smooth="yes"/>
      <point x="89.0" y="121.0"/>
      <point x="79.0" y="129.0"/>
      <point x="67.0" y="135.0" type="curve"/>
      <point x="41.0" y="144.0"/>
      <point x="5.0" y="118.0"/>
      <point x="-59.0" y="22.0" type="curve"/>
    </contour>
    <contour>
      <point x="-103.0" y="312.0" type="line"/>
      <point x="-50.0" y="312.0" type="line"/>
      <point x="-50.0" y="44.0" type="line"/>
      <point x="-103.0" y="44.0" type="line"/>
    </contour>
  </outline>
</glyph>
<glyph name="arTah.isol" format="2">
  <advance width="670"/>
  <outline>
    <contour>
      <point x="50.0" y="0.0" type="line"/>
      <point x="50.0" y="105.0" type="line"/>
      <point x="120.0" y="105.0" type="line"/>
      <point x="120.0" y="0.0" type="line"/>
    </contour>
    <contour>
      <point x="129.0" y="624.0" type="line"/>
      <point x="235.0" y="624.0" type="line"/>
      <point x="235.0" y="88.0" type="line"/>
      <point x="129.0" y="88.0" type="line"/>
    </contour>
    <component base="arSad.head" xOffset="366.0"/>
    <component base="arTah.above" xOffset="391.0" yOffset="485.0" identifier="mark_arTah.above"/>
    <component base="ar3Dot.above" xOffset="391.0" yOffset="485.0" identifier="mark_ar3Dot.above"/>
    <component base="ar1Dot.above" xOffset="391.0" yOffset="485.0" identifier="mark_ar1Dot.above"/>
    <component base="uni0652" xOffset="391.0" yOffset="521.0" identifier="mark_uni0652"/>
    <component base="uni064F" xOffset="391.0" yOffset="519.0" identifier="mark_uni064F"/>
    <component base="uni064C" xOffset="391.0" yOffset="518.0" identifier="mark_uni064C"/>
    <component base="ar3IDot.below" xOffset="354.0" yOffset="-110.0" identifier="mark_ar3IDot.below"/>
    <component base="ar2Dot.below" xOffset="354.0" yOffset="-110.0" identifier="mark_ar2Dot.below"/>
    <component base="uni0656" xOffset="354.0" yOffset="-110.0" identifier="mark_uni0656"/>
    <component base="uni064D" xOffset="354.0" yOffset="-140.0" identifier="mark_uni064D"/>
    <component base="uni0650" xOffset="354.0" yOffset="-131.0" identifier="mark_uni0650"/>
    <component base="ar1Dot.below" xOffset="354.0" yOffset="-110.0" identifier="mark_ar1Dot.below"/>
    <component base="ar3Dot.below" xOffset="354.0" yOffset="-110.0" identifier="mark_ar3Dot.below"/>
    <component base="uni064B" xOffset="391.0" yOffset="523.0" identifier="mark_uni064B"/>
    <component base="uni064E" xOffset="391.0" yOffset="506.0" identifier="mark_uni064E"/>
    <component base="uni0651" xOffset="391.0" yOffset="523.0" identifier="mark_uni0651"/>
    <component base="uni0670" xOffset="391.0" yOffset="485.0" identifier="mark_uni0670"/>
    <component base="ar2Dot.above" xOffset="391.0" yOffset="485.0" identifier="mark_ar2Dot.above"/>
    <component base="ar3IDot.above" xOffset="391.0" yOffset="485.0" identifier="mark_ar3IDot.above"/>
  </outline>
</glyph>
<glyph name="arWaw.fina" format="2">
  <advance width="495"/>
  <outline>
    <contour>
      <point x="515.0" y="105.0" type="line"/>
      <point x="515.0" y="0.0" type="line"/>
      <point x="370.0" y="0.0" type="line"/>
      <point x="370.0" y="105.0" type="line"/>
    </contour>
    <component base="arWaw.isol"/>
  </outline>
</glyph>
<glyph name="arWaw.isol" format="2">
  <advance width="468"/>
  <outline>
    <contour>
      <point x="362.0" y="0.0" type="line"/>
      <point x="206.0" y="0.0" type="line" smooth="yes"/>
      <point x="116.0" y="0.0"/>
      <point x="45.0" y="73.0"/>
      <point x="50.0" y="159.0" type="curve" smooth="yes"/>
      <point x="62.0" y="296.0"/>
      <point x="176.0" y="375.0"/>
      <point x="274.0" y="376.0" type="curve" smooth="yes"/>
      <point x="347.0" y="377.0"/>
      <point x="417.0" y="326.0"/>
      <point x="418.0" y="233.0" type="curve" smooth="yes"/>
      <point x="418.0" y="-1.0" type="line" smooth="yes"/>
      <point x="418.0" y="-99.0"/>
      <point x="345.0" y="-200.0"/>
      <point x="228.0" y="-200.0" type="curve" smooth="yes"/>
      <point x="35.0" y="-200.0" type="line"/>
      <point x="35.0" y="-94.0" type="line"/>
      <point x="228.0" y="-94.0" type="line" smooth="yes"/>
      <point x="277.0" y="-94.0"/>
      <point x="314.0" y="-50.0"/>
      <point x="314.0" y="0.0" type="curve" smooth="yes"/>
      <point x="314.0" y="213.0" type="line" smooth="yes"/>
      <point x="314.0" y="245.0"/>
      <point x="302.0" y="271.0"/>
      <point x="275.0" y="271.0" type="curve" smooth="yes"/>
      <point x="229.0" y="271.0"/>
      <point x="162.0" y="228.0"/>
      <point x="154.0" y="151.0" type="curve"/>
      <point x="153.0" y="131.0"/>
      <point x="174.0" y="105.0"/>
      <point x="206.0" y="105.0" type="curve" smooth="yes"/>
      <point x="362.0" y="105.0" type="line"/>
    </contour>
    <component base="arTah.above" xOffset="263.0" yOffset="484.0" identifier="mark_arTah.above"/>
    <component base="ar3Dot.above" xOffset="263.0" yOffset="484.0" identifier="mark_ar3Dot.above"/>
    <component base="ar1Dot.above" xOffset="263.0" yOffset="484.0" identifier="mark_ar1Dot.above"/>
    <component base="uni0652" xOffset="263.0" yOffset="520.0" identifier="mark_uni0652"/>
    <component base="uni064F" xOffset="263.0" yOffset="518.0" identifier="mark_uni064F"/>
    <component base="uni064C" xOffset="263.0" yOffset="517.0" identifier="mark_uni064C"/>
    <component base="uni0654" xOffset="263.0" yOffset="484.0" identifier="mark_uni0654"/>
    <component base="arSad.above" xOffset="263.0" yOffset="484.0" identifier="mark_arSad.above"/>
    <component base="ar3IDot.below" xOffset="199.0" yOffset="-309.0" identifier="mark_ar3IDot.below"/>
    <component base="ar2Dot.below" xOffset="199.0" yOffset="-309.0" identifier="mark_ar2Dot.below"/>
    <component base="uni0656" xOffset="199.0" yOffset="-309.0" identifier="mark_uni0656"/>
    <component base="uni064D" xOffset="199.0" yOffset="-339.0" identifier="mark_uni064D"/>
    <component base="uni0650" xOffset="199.0" yOffset="-330.0" identifier="mark_uni0650"/>
    <component base="ar1Dot.below" xOffset="199.0" yOffset="-309.0" identifier="mark_ar1Dot.below"/>
    <component base="ar3Dot.below" xOffset="199.0" yOffset="-309.0" identifier="mark_ar3Dot.below"/>
    <component base="arKaf.above" xOffset="263.0" yOffset="484.0" identifier="mark_arKaf.above"/>
    <component base="uni0653" xOffset="263.0" yOffset="484.0" identifier="mark_uni0653"/>
    <component base="uni064B" xOffset="263.0" yOffset="522.0" identifier="mark_uni064B"/>
    <component base="uni064E" xOffset="263.0" yOffset="505.0" identifier="mark_uni064E"/>
    <component base="uni0651" xOffset="263.0" yOffset="522.0" identifier="mark_uni0651"/>
    <component base="uni0670" xOffset="263.0" yOffset="484.0" identifier="mark_uni0670"/>
    <component base="ar2Dot.above" xOffset="263.0" yOffset="484.0" identifier="mark_ar2Dot.above"/>
    <component base="ar3IDot.above" xOffset="263.0" yOffset="484.0" identifier="mark_ar3IDot.above"/>
  </outline>
</glyph>
<glyph name="arYeh.fina.alt1" format="2">
  <advance width="674"/>
  <outline>
    <contour>
      <point x="469.0" y="58.0" type="line"/>
      <point x="574.0" y="58.0" type="line"/>
      <point x="574.0" y="-83.0" type="line" smooth="yes"/>
      <point x="574.0" y="-140.0"/>
      <point x="530.0" y="-188.0"/>
      <point x="470.0" y="-188.0" type="curve" smooth="yes"/>
      <point x="332.0" y="-188.0" type="line" smooth="yes"/>
      <point x="204.0" y="-188.0"/>
      <point x="105.0" y="-118.0"/>
      <point x="105.0" y="-3.0" type="curve" smooth="yes"/>
      <point x="105.0" y="187.0" type="line"/>
      <point x="210.0" y="187.0" type="line"/>
      <point x="210.0" y="-3.0" type="line" smooth="yes"/>
      <point x="210.0" y="-28.0"/>
      <point x="237.0" y="-82.0"/>
      <point x="332.0" y="-82.0" type="curve" smooth="yes"/>
      <point x="489.0" y="-82.0" type="line"/>
      <point x="482.0" y="-89.0"/>
      <point x="476.0" y="-95.0"/>
      <point x="469.0" y="-102.0" type="curve"/>
    </contour>
    <contour>
      <point x="694.0" y="105.0" type="line"/>
      <point x="694.0" y="0.0" type="line"/>
      <point x="422.0" y="0.0" type="line"/>
      <point x="422.0" y="105.0" type="line"/>
    </contour>
    <component base="ar3IDot.below" xOffset="379.0" yOffset="-276.0" identifier="mark_ar3IDot.below"/>
    <component base="ar2Dot.below" xOffset="379.0" yOffset="-276.0" identifier="mark_ar2Dot.below"/>
    <component base="uni0656" xOffset="379.0" yOffset="-276.0" identifier="mark_uni0656"/>
    <component base="uni064D" xOffset="379.0" yOffset="-306.0" identifier="mark_uni064D"/>
    <component base="uni0653" xOffset="307.0" yOffset="250.0" identifier="mark_uni0653"/>
    <component base="arKaf.above" xOffset="307.0" yOffset="250.0" identifier="mark_arKaf.above"/>
    <component base="ar3IDot.above" xOffset="307.0" yOffset="250.0" identifier="mark_ar3IDot.above"/>
    <component base="ar2Dot.above" xOffset="307.0" yOffset="250.0" identifier="mark_ar2Dot.above"/>
    <component base="uni0670" xOffset="307.0" yOffset="250.0" identifier="mark_uni0670"/>
    <component base="uni0651" xOffset="307.0" yOffset="288.0" identifier="mark_uni0651"/>
    <component base="uni064E" xOffset="307.0" yOffset="271.0" identifier="mark_uni064E"/>
    <component base="uni064B" xOffset="307.0" yOffset="288.0" identifier="mark_uni064B"/>
    <component base="uni064C" xOffset="307.0" yOffset="283.0" identifier="mark_uni064C"/>
    <component base="uni064F" xOffset="307.0" yOffset="284.0" identifier="mark_uni064F"/>
    <component base="uni0652" xOffset="307.0" yOffset="286.0" identifier="mark_uni0652"/>
    <component base="ar1Dot.above" xOffset="307.0" yOffset="250.0" identifier="mark_ar1Dot.above"/>
    <component base="ar3Dot.above" xOffset="307.0" yOffset="250.0" identifier="mark_ar3Dot.above"/>
    <component base="arTah.above" xOffset="307.0" yOffset="250.0" identifier="mark_arTah.above"/>
    <component base="arSad.above" xOffset="307.0" yOffset="250.0" identifier="mark_arSad.above"/>
    <component base="uni0654" xOffset="307.0" yOffset="250.0" identifier="mark_uni0654"/>
    <component base="uni0650" xOffset="379.0" yOffset="-297.0" identifier="mark_uni0650"/>
    <component base="ar1Dot.below" xOffset="379.0" yOffset="-276.0" identifier="mark_ar1Dot.below"/>
    <component base="ar3Dot.below" xOffset="379.0" yOffset="-276.0" identifier="mark_ar3Dot.below"/>
  </outline>
</glyph>
<glyph name="arYeh.fina.alt2" format="2">
  <advance width="869"/>
  <anchor x="379.0" y="-246.0" name="dotBelow"/>
  <anchor x="379.0" y="-276.0" name="markBelow"/>
  <anchor x="307.0" y="280.0" name="hamzaAbove"/>
  <anchor x="307.0" y="280.0" name="kafAbove"/>
  <anchor x="307.0" y="280.0" name="dotAbove"/>
  <anchor x="307.0" y="318.0" name="markAbove"/>
  <outline>
    <contour>
      <point x="889.0" y="105.0" type="line"/>
      <point x="889.0" y="0.0" type="line"/>
      <point x="758.0" y="0.0" type="line" smooth="yes"/>
      <point x="705.0" y="0.0"/>
      <point x="662.0" y="44.0"/>
      <point x="659.0" y="97.0" type="curve" smooth="yes"/>
      <point x="655.0" y="179.0" type="line" smooth="yes"/>
      <point x="654.0" y="200.0"/>
      <point x="643.0" y="216.0"/>
      <point x="602.0" y="193.0" type="curve" smooth="yes"/>
      <point x="565.0" y="173.0"/>
      <point x="510.0" y="137.0"/>
      <point x="484.0" y="103.0" type="curve"/>
      <point x="485.05" y="115.95"/>
      <point x="485.95" y="127.05"/>
      <point x="487.0" y="140.0" type="curve"/>
      <point x="616.0" y="-8.0" type="line" smooth="yes"/>
      <point x="675.0" y="-76.0"/>
      <point x="613.0" y="-162.0"/>
      <point x="538.0" y="-162.0" type="curve" smooth="yes"/>
      <point x="273.0" y="-162.0" type="line" smooth="yes"/>
      <point x="168.0" y="-163.0"/>
      <point x="105.0" y="-76.0"/>
      <point x="105.0" y="14.0" type="curve" smooth="yes"/>
      <point x="105.0" y="217.0" type="line"/>
      <point x="210.0" y="217.0" type="line"/>
      <point x="210.0" y="14.0" type="line" smooth="yes"/>
      <point x="210.0" y="-31.0"/>
      <point x="236.0" y="-58.0"/>
      <point x="272.0" y="-58.0" type="curve" smooth="yes"/>
      <point x="539.0" y="-58.0" type="line"/>
      <point x="536.55" y="-62.9"/>
      <point x="534.45" y="-67.1"/>
      <point x="532.0" y="-72.0" type="curve"/>
      <point x="426.0" y="50.0" type="line" smooth="yes"/>
      <point x="387.0" y="94.0"/>
      <point x="384.0" y="156.0"/>
      <point x="428.0" y="196.0" type="curve" smooth="yes"/>
      <point x="465.0" y="232.0"/>
      <point x="510.0" y="262.0"/>
      <point x="551.0" y="285.0" type="curve" smooth="yes"/>
      <point x="621.0" y="324.0"/>
      <point x="706.0" y="311.0"/>
      <point x="743.0" y="244.0" type="curve" smooth="yes"/>
      <point x="765.0" y="204.0"/>
      <point x="762.0" y="143.0"/>
      <point x="765.0" y="86.0" type="curve"/>
      <point x="757.65" y="92.65"/>
      <point x="751.35" y="98.35"/>
      <point x="744.0" y="105.0" type="curve"/>
    </contour>
  </outline>
</glyph>
<glyph name="arYeh.fina2" format="2">
  <advance width="708"/>
  <outline>
    <contour>
      <point x="708.0" y="-170.0" type="line"/>
      <point x="708.0" y="-276.0" type="line"/>
      <point x="270.0" y="-276.0" type="line" smooth="yes"/>
      <point x="155.0" y="-276.0"/>
      <point x="76.0" y="-223.0"/>
      <point x="55.0" y="-145.0" type="curve" smooth="yes"/>
      <point x="32.0" y="-59.0"/>
      <point x="86.0" y="32.0"/>
      <point x="180.0" y="57.0" type="curve" smooth="yes"/>
      <point x="273.0" y="81.0"/>
      <point x="237.0" y="85.0"/>
      <point x="270.0" y="142.0" type="curve" smooth="yes"/>
      <point x="299.0" y="192.0"/>
      <point x="348.0" y="232.0"/>
      <point x="419.0" y="233.0" type="curve" smooth="yes"/>
      <point x="477.0" y="234.0"/>
      <point x="535.0" y="202.0"/>
      <point x="565.0" y="145.0" type="curve" smooth="yes"/>
      <point x="582.0" y="111.0"/>
      <point x="594.0" y="105.0"/>
      <point x="634.0" y="105.0" type="curve" smooth="yes"/>
      <point x="728.0" y="105.0" type="line"/>
      <point x="728.0" y="0.0" type="line"/>
      <point x="634.0" y="0.0" type="line" smooth="yes"/>
      <point x="566.0" y="0.0"/>
      <point x="507.0" y="31.0"/>
      <point x="472.0" y="97.0" type="curve" smooth="yes"/>
      <point x="460.0" y="120.0"/>
      <point x="439.0" y="130.0"/>
      <point x="417.0" y="128.0" type="curve" smooth="yes"/>
      <point x="390.0" y="126.0"/>
      <point x="375.0" y="111.0"/>
      <point x="361.0" y="88.0" type="curve" smooth="yes"/>
      <point x="352.0" y="73.0"/>
      <point x="334.0" y="-11.0"/>
      <point x="207.0" y="-45.0" type="curve" smooth="yes"/>
      <point x="166.0" y="-56.0"/>
      <point x="150.0" y="-92.0"/>
      <point x="157.0" y="-118.0" type="curve" smooth="yes"/>
      <point x="162.0" y="-137.0"/>
      <point x="183.0" y="-170.0"/>
      <point x="270.0" y="-170.0" type="curve" smooth="yes"/>
    </contour>
    <component base="ar3IDot.below" xOffset="489.0" yOffset="-370.0" identifier="mark_ar3IDot.below"/>
    <component base="ar2Dot.below" xOffset="489.0" yOffset="-370.0" identifier="mark_ar2Dot.below"/>
    <component base="uni0656" xOffset="489.0" yOffset="-370.0" identifier="mark_uni0656"/>
    <component base="uni064D" xOffset="489.0" yOffset="-400.0" identifier="mark_uni064D"/>
    <component base="uni0653" xOffset="429.0" yOffset="335.0" identifier="mark_uni0653"/>
    <component base="arKaf.above" xOffset="429.0" yOffset="335.0" identifier="mark_arKaf.above"/>
    <component base="ar3IDot.above" xOffset="429.0" yOffset="335.0" identifier="mark_ar3IDot.above"/>
    <component base="ar2Dot.above" xOffset="429.0" yOffset="335.0" identifier="mark_ar2Dot.above"/>
    <component base="uni0670" xOffset="429.0" yOffset="335.0" identifier="mark_uni0670"/>
    <component base="uni0651" xOffset="429.0" yOffset="373.0" identifier="mark_uni0651"/>
    <component base="uni064E" xOffset="429.0" yOffset="356.0" identifier="mark_uni064E"/>
    <component base="uni064B" xOffset="429.0" yOffset="373.0" identifier="mark_uni064B"/>
    <component base="uni064C" xOffset="429.0" yOffset="368.0" identifier="mark_uni064C"/>
    <component base="uni064F" xOffset="429.0" yOffset="369.0" identifier="mark_uni064F"/>
    <component base="uni0652" xOffset="429.0" yOffset="371.0" identifier="mark_uni0652"/>
    <component base="ar1Dot.above" xOffset="429.0" yOffset="335.0" identifier="mark_ar1Dot.above"/>
    <component base="ar3Dot.above" xOffset="429.0" yOffset="335.0" identifier="mark_ar3Dot.above"/>
    <component base="arTah.above" xOffset="429.0" yOffset="335.0" identifier="mark_arTah.above"/>
    <component base="arSad.above" xOffset="429.0" yOffset="335.0" identifier="mark_arSad.above"/>
    <component base="uni0654" xOffset="429.0" yOffset="335.0" identifier="mark_uni0654"/>
    <component base="uni0650" xOffset="489.0" yOffset="-391.0" identifier="mark_uni0650"/>
    <component base="ar1Dot.below" xOffset="489.0" yOffset="-370.0" identifier="mark_ar1Dot.below"/>
    <component base="ar3Dot.below" xOffset="489.0" yOffset="-370.0" identifier="mark_ar3Dot.below"/>
  </outline>
</glyph>
<glyph name="arYeh.isol" format="2">
  <advance width="631"/>
  <anchor x="324.0" y="-324.0" name="dotBelow"/>
  <anchor x="324.0" y="-354.0" name="markBelow"/>
  <anchor x="252.0" y="202.0" name="dotAbove"/>
  <anchor x="252.0" y="202.0" name="uni0654"/>
  <anchor x="252.0" y="202.0" name="arSad.above"/>
  <anchor x="252.0" y="240.0" name="markAbove"/>
  <anchor x="252.0" y="202.0" name="arKaf.above"/>
  <anchor x="252.0" y="202.0" name="uni0653"/>
  <outline>
    <contour>
      <point x="581.0" y="144.0" type="line"/>
      <point x="581.0" y="40.0" type="line"/>
      <point x="432.0" y="40.0" type="line"/>
      <point x="435.5" y="44.2"/>
      <point x="438.5" y="47.8"/>
      <point x="442.0" y="52.0" type="curve"/>
      <point x="557.0" y="-87.0" type="line" smooth="yes"/>
      <point x="613.0" y="-154.0"/>
      <point x="547.0" y="-234.0"/>
      <point x="473.0" y="-234.0" type="curve" smooth="yes"/>
      <point x="243.0" y="-234.0" type="line" smooth="yes"/>
      <point x="165.0" y="-234.0"/>
      <point x="50.0" y="-188.0"/>
      <point x="50.0" y="-57.0" type="curve" smooth="yes"/>
      <point x="50.0" y="139.0" type="line"/>
      <point x="155.0" y="139.0" type="line"/>
      <point x="155.0" y="-57.0" type="line" smooth="yes"/>
      <point x="155.0" y="-108.0"/>
      <point x="196.0" y="-130.0"/>
      <point x="253.0" y="-130.0" type="curve" smooth="yes"/>
      <point x="477.0" y="-130.0" type="line"/>
      <point x="473.85" y="-134.55"/>
      <point x="471.15" y="-138.45"/>
      <point x="468.0" y="-143.0" type="curve"/>
      <point x="365.0" y="-19.0" type="line" smooth="yes"/>
      <point x="306.0" y="52.0"/>
      <point x="351.0" y="144.0"/>
      <point x="443.0" y="144.0" type="curve" smooth="yes"/>
    </contour>
  </outline>
</glyph>
<glyph name="arYeh.isol2" format="2">
  <advance width="946"/>
  <outline>
    <contour>
      <point x="581.0" y="264.0" type="curve"/>
      <point x="525.0" y="176.0" type="line"/>
      <point x="475.0" y="208.0"/>
      <point x="405.0" y="230.0"/>
      <point x="358.0" y="163.0" type="curve" smooth="yes"/>
      <point x="353.0" y="156.0"/>
      <point x="334.0" y="65.0"/>
      <point x="207.0" y="32.0" type="curve" smooth="yes"/>
      <point x="166.0" y="21.0"/>
      <point x="150.0" y="-15.0"/>
      <point x="157.0" y="-41.0" type="curve" smooth="yes"/>
      <point x="162.0" y="-60.0"/>
      <point x="183.0" y="-92.0"/>
      <point x="270.0" y="-92.0" type="curve" smooth="yes"/>
      <point x="896.0" y="-92.0" type="line"/>
      <point x="896.0" y="-198.0" type="line"/>
      <point x="270.0" y="-198.0" type="line" smooth="yes"/>
      <point x="155.0" y="-198.0"/>
      <point x="76.0" y="-145.0"/>
      <point x="55.0" y="-67.0" type="curve" smooth="yes"/>
      <point x="32.0" y="19.0"/>
      <point x="87.0" y="110.0"/>
      <point x="180.0" y="134.0" type="curve" smooth="yes"/>
      <point x="273.0" y="159.0"/>
      <point x="230.0" y="162.0"/>
      <point x="273.0" y="223.0" type="curve" smooth="yes"/>
      <point x="372.0" y="364.0"/>
      <point x="523.0" y="300.0"/>
    </contour>
    <component base="ar3IDot.below" xOffset="489.0" yOffset="-297.0" identifier="mark_ar3IDot.below"/>
    <component base="ar2Dot.below" xOffset="489.0" yOffset="-297.0" identifier="mark_ar2Dot.below"/>
    <component base="uni0656" xOffset="489.0" yOffset="-297.0" identifier="mark_uni0656"/>
    <component base="uni064D" xOffset="489.0" yOffset="-327.0" identifier="mark_uni064D"/>
    <component base="ar3IDot.above" xOffset="429.0" yOffset="408.0" identifier="mark_ar3IDot.above"/>
    <component base="ar2Dot.above" xOffset="429.0" yOffset="408.0" identifier="mark_ar2Dot.above"/>
    <component base="uni0654" xOffset="429.0" yOffset="408.0" identifier="mark_uni0654"/>
    <component base="arSad.above" xOffset="429.0" yOffset="408.0" identifier="mark_arSad.above"/>
    <component base="uni0670" xOffset="429.0" yOffset="408.0" identifier="mark_uni0670"/>
    <component base="uni0651" xOffset="429.0" yOffset="446.0" identifier="mark_uni0651"/>
    <component base="uni064E" xOffset="429.0" yOffset="429.0" identifier="mark_uni064E"/>
    <component base="uni064B" xOffset="429.0" yOffset="446.0" identifier="mark_uni064B"/>
    <component base="uni064C" xOffset="429.0" yOffset="441.0" identifier="mark_uni064C"/>
    <component base="uni064F" xOffset="429.0" yOffset="442.0" identifier="mark_uni064F"/>
    <component base="uni0652" xOffset="429.0" yOffset="444.0" identifier="mark_uni0652"/>
    <component base="arKaf.above" xOffset="429.0" yOffset="408.0" identifier="mark_arKaf.above"/>
    <component base="uni0653" xOffset="429.0" yOffset="408.0" identifier="mark_uni0653"/>
    <component base="ar1Dot.above" xOffset="429.0" yOffset="408.0" identifier="mark_ar1Dot.above"/>
    <component base="ar3Dot.above" xOffset="429.0" yOffset="408.0" identifier="mark_ar3Dot.above"/>
    <component base="arTah.above" xOffset="429.0" yOffset="408.0" identifier="mark_arTah.above"/>
    <component base="uni0650" xOffset="489.0" yOffset="-318.0" identifier="mark_uni0650"/>
    <component base="ar1Dot.below" xOffset="489.0" yOffset="-297.0" identifier="mark_ar1Dot.below"/>
    <component base="ar3Dot.below" xOffset="489.0" yOffset="-297.0" identifier="mark_ar3Dot.below"/>
  </outline>
</glyph>
<glyph name="braceleft.ar" format="2">
  <advance width="493"/>
  <outline>
    <contour>
      <point x="437.4443359375" y="-185.5" type="curve"/>
      <point x="437.4443359375" y="-290.5" type="line"/>
      <point x="346.4375" y="-290.5"/>
      <point x="243.9443359375" y="-239.845703125"/>
      <point x="243.9443359375" y="-115.0" type="curve" smooth="yes"/>
      <point x="243.9443359375" y="123.0" type="line" smooth="yes"/>
      <point x="243.9443359375" y="157.08203125"/>
      <point x="232.2666015625" y="171.3203125"/>
      <point x="202.8564453125" y="180.962890625" type="curve" smooth="yes"/>
      <point x="190.759765625" y="184.9287109375"/>
      <point x="174.8330078125" y="187.5"/>
      <point x="155.4443359375" y="187.5" type="curve"/>
      <point x="155.4443359375" y="292.5" type="line"/>
      <point x="174.6904296875" y="292.5"/>
      <point x="190.3505859375" y="295.310546875"/>
      <point x="202.3486328125" y="299.5595703125" type="curve" smooth="yes"/>
      <point x="231.880859375" y="310.0185546875"/>
      <point x="243.9443359375" y="326.8828125"/>
      <point x="243.9443359375" y="358.0" type="curve" smooth="yes"/>
      <point x="243.9443359375" y="610.0" type="line" smooth="yes"/>
      <point x="243.9443359375" y="722.568359375"/>
      <point x="348.8544921875" y="771.849609375"/>
      <point x="438.8251953125" y="769.4814453125" type="curve"/>
      <point x="436.0634765625" y="664.5185546875" type="line"/>
      <point x="374.0341796875" y="666.150390625"/>
      <point x="348.9443359375" y="639.431640625"/>
      <point x="348.9443359375" y="610.0" type="curve" smooth="yes"/>
      <point x="348.9443359375" y="358.0" type="line" smooth="yes"/>
      <point x="348.9443359375" y="313.572265625"/>
      <point x="333.24609375" y="271.5751953125"/>
      <point x="302.65625" y="240.9375" type="curve"/>
      <point x="334.9951171875" y="208.982421875"/>
      <point x="348.9443359375" y="168.521484375"/>
      <point x="348.9443359375" y="123.0" type="curve" smooth="yes"/>
      <point x="348.9443359375" y="-115.0" type="line" smooth="yes"/>
      <point x="348.9443359375" y="-166.154296875"/>
      <point x="376.451171875" y="-185.5"/>
    </contour>
  </outline>
</glyph>
<glyph name="extender" format="2">
  <outline>
    <contour>
      <point x="15.0" y="105.0" type="line"/>
      <point x="15.0" y="0.0" type="line"/>
      <point x="-15.0" y="0.0" type="line"/>
      <point x="-15.0" y="105.0" type="line"/>
    </contour>
  </outline>
</glyph>
<glyph name="parenleft.ar" format="2">
  <advance width="467"/>
  <outline>
    <contour>
      <point x="320.173828125" y="796.1640625" type="curve"/>
      <point x="410.025390625" y="741.8359375" type="line"/>
      <point x="211.03125" y="412.7294921875"/>
      <point x="204.046875" y="89.9130859375"/>
      <point x="412.291015625" y="-262.279296875" type="curve"/>
      <point x="321.908203125" y="-315.720703125" type="line"/>
      <point x="96.1533203125" y="66.0869140625"/>
      <point x="103.16796875" y="437.2705078125"/>
    </contour>
  </outline>
</glyph>
<glyph name="uni0664.alt" format="2">
  <advance width="600"/>
  <outline>
    <contour>
      <point x="338.0" y="657.0" type="line"/>
      <point x="400.0" y="573.0" type="line"/>
      <point x="208.0" y="432.0" type="line"/>
      <point x="211.0" y="462.0" type="line"/>
      <point x="355.0" y="332.0" type="line" smooth="yes"/>
      <point x="379.0" y="310.0"/>
      <point x="382.0" y="265.0"/>
      <point x="360.0" y="240.0" type="curve" smooth="yes"/>
      <point x="221.0" y="86.0" type="line"/>
      <point x="220.0" y="105.0" type="line"/>
      <point x="490.0" y="105.0" type="line"/>
      <point x="490.0" y="0.0" type="line"/>
      <point x="175.0" y="0.0" type="line" smooth="yes"/>
      <point x="146.0" y="0.0"/>
      <point x="120.0" y="35.0"/>
      <point x="114.0" y="54.0" type="curve" smooth="yes"/>
      <point x="101.0" y="91.0"/>
      <point x="119.0" y="131.0"/>
      <point x="147.0" y="160.0" type="curve" smooth="yes"/>
      <point x="256.0" y="280.0" type="line"/>
      <point x="224.0" y="310.0"/>
      <point x="158.0" y="369.0"/>
      <point x="158.0" y="369.0" type="curve"/>
      <point x="141.0" y="385.0"/>
      <point x="115.0" y="412.0"/>
      <point x="117.0" y="454.0" type="curve" smooth="yes"/>
      <point x="118.0" y="489.0"/>
      <point x="142.0" y="514.0"/>
      <point x="164.0" y="530.0" type="curve" smooth="yes"/>
    </contour>
  </outline>
</glyph>
